<?xml version="1.0" encoding="UTF-8"?>
<svg xmlns="http://www.w3.org/2000/svg" version="1.1" viewBox="0 0 500 500">
  <defs>
    <style>
      .cls-1 {
        fill: #f5d663;
      }

      .cls-2 {
        fill: #0fa0b3;
      }

      .cls-3 {
        fill: #f8cb4b;
      }
    </style>
  </defs>
  <!-- Generator: Adobe Illustrator 28.7.1, SVG Export Plug-In . SVG Version: 1.2.0 Build 142)  -->
  <g>
    <g id="Ebene_1">
      <g>
        <path class="cls-1" d="M321.5,163.4c-33.5,4.2-13.8,22.3-39.5,26.2-1.4-2.7-5.7-6-8.2-9-5.6,4.1-11.2,8-16.9,11.9-6.9-2.3-13.2-5.2-19.7-8.5-.6,2.8-2.8,4.8-1.1,7.7-22.6-13.2-4.2-20.5-39.5-24.1-35.4-3.5-27.8,35.1-25.9-46.5-13.3-1.1-22.1-2.3-33,3.7-.1,33.5,2.9,78.6,35,97.3-3.4,32.4,7.6,26.4,24.8,43.5,21.1,3.7,46.9.1,67.1,3.1,20.2,3,34.7,8,53.4,13,19-15.9,38.2-30.4,44.4-55.7,23-16.9,26-50.3,29.2-76.3-12.1-6.6-21.2-13.9-35-20.2,11.7,76.1-1.7,29.7-35.2,33.9Z"/>
        <path class="cls-2" d="M256.9,192.4c5.7-3.9,11.3-7.8,16.9-11.9-12.2,2.2-24.1,3.1-36.5,3.4,6.4,3.3,12.8,6.2,19.7,8.5Z"/>
        <path class="cls-2" d="M260.4,201.3c-.8,3-1.9,5.9-3.4,8.6-8-5-14.8-10.8-21.1-17.8,5.5,5.3,11.9,9.5,18.7,13.1,2-1.2,3.9-2.5,5.7-3.9Z"/>
        <path class="cls-2" d="M260.4,201.3c3.8,3.2,7.7,6,11.8,8.8,4.2-6.2,6.9-13.2,9.8-20.1-3.6,5.4-7.4,10.5-12.1,15-3.2-1.1-6.4-2.4-9.6-3.8Z"/>
        <path class="cls-2" d="M170.3,131.1c6-25,12.4-35.5,26.5-57.5-18.1,6.9-36,14.1-55.2,17.4-5.7,13.6-9.1,26-4.4,40.3,13.7-10.9,19.1-9,33.1-.3Z"/>
        <path class="cls-2" d="M358.5,142.1c-5.8-17.9-14-42.7-4.5-60.3,16.2,13,27.2,30.7,45.2,41.5-.6,11.4-4.6,23.2-8.5,33.8-8.6-9.7-18.7-17.7-32.3-15Z"/>
        <path class="cls-2" d="M317.6,162.4c-7.5,2.9-12.9,8.5-18.1,14.4,1.7,28.8,7.4,46.5-29,47.3-30.4-8.2-46.8-13.1-49.9-47.7-5.8-5-12.8-7.8-20.3-9.2,3.5,19.3-10.4,53-33,51.9,3.8,21.7,3.5,27.8,21,38.8,50.8,5.2,84.5,4.9,140,15.5,17.6-16.9,28.9-25,37.5-49.7-19.7-7.6-50.9-38.8-48.1-61.3Z"/>
        <path class="cls-2" d="M319.8,280.1c-47.5-14.1-78.4-10.1-124-16.6,12.4,17.4-35.3,100.9-31.9,143.7,108.4-88.4,102.2-39.8,181.8.2,13.7-60.3-53-93.4-25.9-127.3Z"/>
        <path class="cls-3" d="M275.4,230.9c-1.1.8-5.5-.5-6.4-.8-.9-.3-5.3-1.4-4.3-2,1-.6,5.1.2,5.9.4.9.2,5.8,1.6,4.7,2.3Z"/>
        <path class="cls-3" d="M269.6,235.3c-1.1,1.7-5-.3-6.1-.7s-5.1-2.6-3.8-3.8c1.2-1.2,4.8.8,6.2,1.1,1.3.3,4.9,1.6,3.8,3.3Z"/>
        <path class="cls-3" d="M265.7,242.3c-.6,2-4.3,0-5.5-.8-1.2-.7-5.3-3-4.8-5,.5-2,4.6.2,5.8.9s5.1,2.9,4.5,4.9Z"/>
        <path class="cls-3" d="M266.1,251.1c0,2-3.2.8-4.5,0-1.4-.7-5.2-2.6-5.5-4.9-.3-2.3,3.3-.7,4.6,0,1.3.8,5.4,2.8,5.4,4.8Z"/>
      </g>
    </g>
  </g>
</svg>