<?xml version="1.0" encoding="UTF-8"?>
<svg xmlns="http://www.w3.org/2000/svg" version="1.1" viewBox="0 0 500 500">
  <defs>
    <style>
      .cls-1 {
        fill: #f5d663;
      }

      .cls-2 {
        fill: #0fa0b3;
      }

      .cls-3 {
        fill: #f8cb4b;
      }
    </style>
  </defs>
  <!-- Generator: Adobe Illustrator 28.7.1, SVG Export Plug-In . SVG Version: 1.2.0 Build 142)  -->
  <g>
    <g id="Ebene_1">
      <path class="cls-1" d="M331.9,130.8c-11.8-7-51.9-12.5-51.9-12.5l-8.4-18.5-21.6,14.6-21.6-14.6-8.4,18.5s-40.1,5.6-51.9,12.5c-11.8,7-39.7,58.2-45.6,115,11.5,2.1,32.4,3.5,32.4,3.5,0,0,15.3-40.1,23.7-50.5,0,0,8.4,45.3,9.4,59.6h124c1-14.3,9.4-59.6,9.4-59.6,8.4,10.5,23.7,50.5,23.7,50.5,0,0,20.9-1.4,32.4-3.5-5.9-56.8-33.8-108-45.6-115Z"/>
      <polygon class="cls-2" points="250 114.4 271.6 99.8 228.4 99.8 250 114.4"/>
      <polygon class="cls-2" points="250 128.8 242.7 143.2 221.2 118.3 242 135.3 250 128.8"/>
      <polygon class="cls-2" points="250 128.8 257.3 143.2 278.8 118.3 258 135.3 250 128.8"/>
      <path class="cls-2" d="M123.6,237.5c-7.2,8.1-6.7,36.2-6.7,36.2l30.4,3s11.8-20.9,9.8-32.3c-12.8,3.5-25.5.7-33.4-7Z"/>
      <path class="cls-2" d="M376.6,237.3c7.2,8.1,6.7,36.2,6.7,36.2l-30.4,3s-11.8-20.9-9.8-32.3c12.8,3.5,25.5.7,33.4-7Z"/>
      <path class="cls-2" d="M332.9,131.5c-5.9-4.7-25.7-8.5-25.7-8.5,0,0-26.8,33.8-57,47.4-30.2-13.5-57.9-47.3-57.9-47.3,0,0-18.2,3.5-24.9,8.3,15.6,8.1,16.4,52.6,8.2,71.2,7.7,11,10.2,38.6,10.2,38.6h128.8s2.6-27.5,10.2-38.6c-8.2-18.6-7.5-63,8.1-71.1Z"/>
      <path class="cls-2" d="M312.4,254.7h-124.7s5.1,98-21.4,144.9h167.5c-18.7-47.2-21.4-144.9-21.4-144.9Z"/>
      <circle class="cls-3" cx="251.3" cy="187.3" r="3.7"/>
      <circle class="cls-3" cx="251.3" cy="201.4" r="3.7"/>
      <circle class="cls-3" cx="251.3" cy="215.7" r="3.7"/>
      <circle class="cls-3" cx="251.3" cy="229.9" r="3.7"/>
    </g>
  </g>
</svg>