<?xml version="1.0" encoding="UTF-8"?>
<svg xmlns="http://www.w3.org/2000/svg" version="1.1" viewBox="0 0 500 500">
  <defs>
    <style>
      .cls-1 {
        fill: #f5d663;
      }

      .cls-2 {
        fill: #492539;
      }
    </style>
  </defs>
  <!-- Generator: Adobe Illustrator 28.7.1, SVG Export Plug-In . SVG Version: 1.2.0 Build 142)  -->
  <g>
    <g id="Ebene_1">
      <path class="cls-1" d="M295,237.2c-16.6-33.2-12.8-74.6-4-83.4-7.2-10.1,4-105.1,4-105.1l-15.9-4.5s-2.4,77.2-29,77.2-29-77.2-29-77.2l-15.9,4.5s11.2,95,4,105.1c8.9,8.9,13.9,50.9-4,83.4-58.4,106.2-28.4,199-28.4,224.5,17,0,64.8,7,64.8,7,0,0,44.3-7,61.3-7,0-25.5,44.3-120-7.9-224.5Z"/>
      <path class="cls-2" d="M214.8,166.8c.9,3.6,1.6,12.1,1.6,12.1,0,0,20.6,17.2,44.2,17.2s23.6-.6,23.6-.6l-.2-3.2s-11.9.4-24.1-.3c-18.3-1-33.6-15-45-25.2Z"/>
      <path class="cls-2" d="M216.5,186.2c0,3.6-.5,10.5-.5,10.5,0,0,20.8,8.8,41.7,8.1,17.4-.6,26.9-4.8,26.9-4.8l-.3-3.2s-11.5,2.7-23.7,2.7c-17.8,0-31.3-4.8-44-13.2Z"/>
      <path class="cls-2" d="M215.3,203c-.3,2.9-1.6,9.2-1.6,9.2,0,0,25.6,5.8,45.7,1.9,14.2-2.7,25.8-9.6,25.8-9.6l-.5-3.8s-14.7,8.9-32,8.3-24.6-1.5-37.4-6.1Z"/>
      <path class="cls-2" d="M212.6,216.3c-.7,3.3-4.2,13.1-4.2,13.1,0,0,28.6,4.4,51.2-5.3,16-6.9,26.5-13.9,26.5-13.9l-.9-4.7s-17.4,12.4-33.5,14.2c-20,2.3-29.6-.7-39.2-3.4Z"/>
    </g>
  </g>
</svg>