<?xml version="1.0" encoding="UTF-8"?>
<svg xmlns="http://www.w3.org/2000/svg" version="1.1" viewBox="0 0 500 500">
  <defs>
    <style>
      .cls-1 {
        fill: #f5d663;
      }

      .cls-2 {
        fill: #492539;
      }
    </style>
  </defs>
  <!-- Generator: Adobe Illustrator 28.7.1, SVG Export Plug-In . SVG Version: 1.2.0 Build 142)  -->
  <g>
    <g id="Ebene_1">
      <g>
        <path class="cls-1" d="M297.8,195.9c-16.5,1.2-40.1,5.2,13.8-14.8,3.2-15.8,18.3-32.4,30.7-43.2-3.8-4.5-8.3-9.1-11.9-13.3-18.7,14.6-30,29.3-57.3,31-27.2,1.7-58.7,7-70.2-28.8-11.3-2.5-18.4-11.1-30.2-9.4-.2,20.2,51.7,44.9,46.1,56.5,20.2,14.8-13.3,26.8-24.9,31.3-11.6,4.6,7.7,113,15.2,126.7,17-5.4,24.9-29.3,43.5-24.4,18.6,4.9,15.4,31,42.3,24.2,0-11.5,19.3-137.2,2.8-136Z"/>
        <path class="cls-2" d="M224.1,180c.4,1.6.2,3.4,0,5,10.2,8.9,20,17.7,33,15.3,9.7-1.8,13.3-3.1,21.9-.5-.1-.1,0-.4.2-.5-7.6-3.1-12.6-2.4-21.1-1.9-12.9.7-22.6-11.8-33.9-17.5Z"/>
        <path class="cls-2" d="M222.8,188.2c-1,1.8-2,3.5-3,5,10.2,10.4,20.4,20.4,33.3,14.1,10.8-5.3,14.8-7.9,25.7-7-.3,0-.2-.2,0-.3-8.9-2-12.8-.6-22.5,2.7-14.3,4.9-22.7-4.1-33.5-14.5Z"/>
        <path class="cls-2" d="M217.4,196.1c-1.3,1.3-3,2.2-4.5,2.9,14.1,11.7,25.4,19.5,41.5,11.1,11.4-5.9,13.7-9,25.1-9.2-.5,0-.4-.4-.6-.4-12-1.1-19.8,6.3-30,11.3-10.9,5.3-22.6-8.9-31.5-15.7Z"/>
        <path class="cls-2" d="M210.3,200.2c-3,1-6.4,1.8-9.1,2.6,17.1,10.3,37.2,14.4,54.2,7.8,12.1-4.7,14-10.1,25.6-9.9-.9.2-1.1.1-1.5.4-11.7-2.6-21,9.9-31.8,12.5-13.4,3.2-26.4-5.9-37.4-13.3Z"/>
      </g>
    </g>
  </g>
</svg>