<?xml version="1.0" encoding="UTF-8"?>
<svg xmlns="http://www.w3.org/2000/svg" version="1.1" viewBox="0 0 500 500">
  <defs>
    <style>
      .cls-1 {
        fill: #f5d663;
      }

      .cls-2 {
        fill: #0fa0b3;
      }

      .cls-3 {
        display: none;
        fill: #fff;
      }

      .cls-4 {
        fill: #f8cb4b;
      }
    </style>
  </defs>
  <!-- Generator: Adobe Illustrator 28.7.1, SVG Export Plug-In . SVG Version: 1.2.0 Build 142)  -->
  <g>
    <g id="Ebene_1">
      <path class="cls-1" d="M331.9,130.8c-11.8-7-51.9-12.5-51.9-12.5l-8.4-18.5-21.6,14.6-21.6-14.6-8.4,18.5s-40.1,5.6-51.9,12.5c-11.8,7-39.7,58.2-45.6,115,11.5,2.1,32.4,3.5,32.4,3.5,0,0,15.3-40.1,23.7-50.5,0,0,8.4,45.3,9.4,59.6h14.8c1.4-5.3,2.7-8.9,3.6-10.6.2-.4.9-.2.8.2-.5,3.4-1.3,6.7-1.7,10.4h10.1c.2-.4.4-.8.6-1.3.1-.4.8-.3.8.1,0,.4,0,.8,0,1.2h81.8c.3-3.5.5-7.2.4-11.1,0-.4.7-.5.8,0,.6,2.2,1.4,6.1,2.2,11.2h9.8c1-14.3,9.4-59.6,9.4-59.6,8.4,10.5,23.7,50.5,23.7,50.5,0,0,20.9-1.4,32.4-3.5-5.9-56.8-33.8-108-45.6-115ZM238.1,214.1c-4.5.3-7.9-4.2-7.9-4.2,0,0-1.7,8.8,2.6,10.7,0,0-24.7-5.2-25.3-19.8-3.5,2.6-3.2,6.9-3.2,6.9,0,0-3.6-3.6-2.9-8.4-5,3.8,1.8,25.7,1.8,25.7,0,0-13.1-1.7-16.9-14.7-3.8-13-4-21.1-3.5-28.4,2.8,11.4,4,14.3,6.7,13.3,2.6-1,.7-13.1-.3-18,4.3,4.2,5,8.9,5,8.9,0,0-1.1-20,.3-25,1.4-4.9,14.7-16,14.7-16,0,0-7.2,11.4-8.6,17.3s.7,18.3,3.2,19.2,11.5,1.6,11.9-6.8c2.5,3.3.8,10.1.8,10.1,0,0,5.6-3,5.3-5.9,3.2,4,1.7,5,2.2,6.9.6,1.9,6.8,7.1,10.4,8,3.6.9,2.1,8.2,4.2,10.8,2.1,2.6,6.9,7.6,6.9,7.6,0,0-3.1,1.4-7.5,1.7Z"/>
      <polygon class="cls-2" points="250 114.4 271.6 99.8 228.4 99.8 250 114.4"/>
      <polygon class="cls-2" points="250 128.8 242.7 143.2 221.2 118.3 242 135.3 250 128.8"/>
      <polygon class="cls-2" points="250 128.8 257.3 143.2 278.8 118.3 258 135.3 250 128.8"/>
      <path class="cls-2" d="M123.6,237.5c-7.2,8.1-6.7,36.2-6.7,36.2l30.4,3s11.8-20.9,9.8-32.3c-12.8,3.5-25.5.7-33.4-7Z"/>
      <path class="cls-2" d="M376.6,237.3c7.2,8.1,6.7,36.2,6.7,36.2l-30.4,3s-11.8-20.9-9.8-32.3c12.8,3.5,25.5.7,33.4-7Z"/>
      <g>
        <path class="cls-2" d="M266.1,259.5c2.1,6.5,6.5,29.1,8.3,36.9,1.6-8.1,3.2-29.3,3.3-35.4,0-.4.7-.5.8-.1,2.2,6.5,6.4,17.4,6.9,24.7,1.4-3.4,4.7-17.8,5.2-25.6,0-.4.7-.5.8,0,1.6,6.4,3.2,7.3,4.3,15.9,1.4-6,2.8-13.1,3.2-21.2h-93c-1.2,7-2.1,14.9,2.8,27.8,3.1-24.5,5.7-20.7,7.3-25.5.1-.4.8-.3.8.1-.3,6.7.2,25.7,1.9,35.1,1.7-13.9,5-27.1,6.9-32.1.2-.4.8-.3.8.1-.3,6.9-.7,33.9,2.1,50.5.9-15.9,5.1-37.8,7.1-44.4.1-.4.9-.3.8.1-.7,9.7-1,40.8,3.3,57.7.3-18.9,2.6-41.5,4.3-49.5,0-.4.8-.4.8,0,0,8.8-.5,40.6,1.7,47.4.4-8,2.4-38.3,3-46.5,0-.5.8-.5.8,0,1.1,7.5,4.5,39.6,5.4,46.5,1.7-9.6,1-42.8,1.1-50.1,0-.4.7-.5.8,0,1.5,6.3,6,28.7,6.7,38.2,1.7-13,.7-43.1.7-50.5,0-.4.7-.5.8-.1Z"/>
        <path class="cls-2" d="M333.8,399.6c-18.7-47.2-21.4-144.9-21.4-144.9h-10.8c2.3,12.5,5.1,35.6,3.4,57.6-2.2,29.2-10,45-12.5,47.8-.3.3-.8.1-.8-.2-.1-3.4,6.6-33.9,2.8-43-.8,20.9-10.6,33.7-11.4,39.5,0,.5-.9.5-.9,0-.5-5.4,8.1-30.2,5.2-33.4.2,4.3-11.8,31.2-12.9,36.4-.1.5-.9.4-.9,0-.5-6.1,6-19.5,3.5-26.8-.8,4.9-10.9,17.2-12.2,24.4,0,.5-.9.4-.9,0-.1-5.9,3.1-8.8,0-16.8-1,11-7.5,18.3-8.6,23.9,0,.5-.8.4-.9,0-.9-5.6,1.1-9,0-19.4-2.4,4.3-8.3,11-9,19.9,0,.5-.9.5-.9,0-.6-6.5-3.8-9.9-3.8-17.1-3.4,10.4-4.1,16.4-5.2,21.9,0,.5-.8.4-.9,0-1-5.6-4.6-9.1-4.2-18.1-3.8,8-3.1,13.3-3.2,20.3,0,.5-.8.5-.9,0-1.6-6.4-5.8-5.3-6.4-16.3-3.7,6.3-2.8,4.3-2.3,13,0,.5-.8.6-.9,0-1.4-7.7-6.3-3.7-7.4-13.2-2.6,8-.7,14.4-.9,19,0,.3-.5.5-.8.3-2.6-2.3-11.5-17.6-11.5-58.1s4.2-50.7,7.5-61.6h-16.1s5.1,98-21.4,144.9h167.5Z"/>
      </g>
      <path class="cls-2" d="M332.9,131.5c-5.9-4.7-25.7-8.5-25.7-8.5,0,0-26.8,33.8-57,47.4-30.2-13.5-57.9-47.3-57.9-47.3,0,0-18.2,3.5-24.9,8.3,15.6,8.1,16.4,52.6,8.2,71.2,7.7,11,10.2,38.6,10.2,38.6h128.8s2.6-27.5,10.2-38.6c-1.3-3-2.4-6.6-3.2-10.6-.5,5.1-1.5,10.9-3.4,18.1-3.8,14.2-17.2,16.1-17.2,16.1,0,0,5.4-15.6.3-19.7.7,5.2-9.7,16.4-9.7,16.4,0,0,2.7-13.7-.8-16.5-.6,15.9-19.7,15-19.7,15,4.4-2,2.6-11.6,2.6-11.6,0,0-3.5,4.9-8,4.6s-7.6-1.9-7.6-1.9c0,0,4.9-5.5,7-8.3,2.1-2.8.6-10.9,4.2-11.8s8,3.8,8.6,1.7c.6-2.1,1-13.5,4.2-17.9-.3,3.1,4.6,17.8,4.6,17.8,0,0-1-18.7,1.6-22.4.4,9.1,9.4,19.9,12,19,2.5-.9,2.4-21.6,1-28.1s-6.4-23.3-6.4-23.3c0,0,13.6,12.1,15,17.5,1.4,5.4-.6,33.1-.6,33.1,0,0,1.6-11,6-15.6-1,5.4-3,18.6-.3,19.7,2.2.9,3.5-1.1,5.5-9-2.5-20.7.8-47,12.5-53ZM238.1,214.1c-4.5.3-7.9-4.2-7.9-4.2,0,0-1.7,8.8,2.6,10.7,0,0-24.7-5.2-25.3-19.8-3.5,2.6-3.2,6.9-3.2,6.9,0,0-3.6-3.6-2.9-8.4-5,3.8,1.8,25.7,1.8,25.7,0,0-13.1-1.7-16.9-14.7-3.8-13-4-21.1-3.5-28.4,2.8,11.4,4,14.3,6.7,13.3,2.6-1,.7-13.1-.3-18,4.3,4.2,5,8.9,5,8.9,0,0-1.1-20,.3-25,1.4-4.9,14.7-16,14.7-16,0,0-7.2,11.4-8.6,17.3s.7,18.3,3.2,19.2,11.5,1.6,11.9-6.8c2.5,3.3.8,10.1.8,10.1,0,0,5.6-3,5.3-5.9,3.2,4,1.7,5,2.2,6.9.6,1.9,6.8,7.1,10.4,8,3.6.9,2.1,8.2,4.2,10.8,2.1,2.6,6.9,7.6,6.9,7.6,0,0-3.1,1.4-7.5,1.7Z"/>
      <circle class="cls-4" cx="251.3" cy="187.3" r="3.7"/>
      <circle class="cls-4" cx="251.3" cy="201.4" r="3.7"/>
      <circle class="cls-4" cx="251.3" cy="215.7" r="3.7"/>
      <circle class="cls-4" cx="251.3" cy="229.9" r="3.7"/>
      <path id="AugeR" class="cls-3" d="M258,212.3s3.1,1.6,7.6,1.9,8-4.6,8-4.6c0,0,1.8,9.6-2.6,11.6,0,0,19.1.9,19.7-15,3.5,2.8.8,16.5.8,16.5,0,0,10.4-11.2,9.7-16.4,5.1,4.1-.3,19.7-.3,19.7,0,0,13.3-1.9,17.2-16.1,3.8-14.2,4.1-23,3.5-31-2.8,12.4-4.1,15.6-6.8,14.5s-.7-14.3.3-19.7c-4.4,4.6-6,15.6-6,15.6,0,0,2.1-27.7.6-33.1s-15-17.5-15-17.5c0,0,5,16.8,6.4,23.3,1.4,6.5,1.6,27.1-1,28.1s-11.6-9.8-12-19c-2.5,3.6-1.6,22.4-1.6,22.4,0,0-4.9-14.6-4.6-17.8-3.2,4.4-3.7,15.9-4.2,17.9s-4.9-2.7-8.6-1.7-2.1,9-4.2,11.8-7,8.3-7,8.3Z"/>
    </g>
  </g>
</svg>