<?xml version="1.0" encoding="UTF-8"?>
<svg xmlns="http://www.w3.org/2000/svg" version="1.1" viewBox="0 0 500 500">
  <defs>
    <style>
      .cls-1 {
        fill: #f5d663;
      }

      .cls-2 {
        fill: #f96282;
      }

      .cls-3 {
        fill: #dd3449;
      }
    </style>
  </defs>
  <!-- Generator: Adobe Illustrator 28.7.1, SVG Export Plug-In . SVG Version: 1.2.0 Build 142)  -->
  <g>
    <g id="Ebene_1">
      <g>
        <path class="cls-2" d="M323.6,243.8c57-39.4-.3,14.5,18.3-30.2,18.6-44.7-35.2-127-86.3-141.1-19.6,6.2,42,47.2,29.5,67.3,8.9,9.9-23.4,36.2-29.5,41.4,0,0-.1,0-.2,0-20.6,4.8-37.3-22.8-43.1-41.1-37.3-25,0-73-37.1-62.9-.7,41.2-44.7,98-39.1,139.7,5.7,41.6-33.6-1.7,5.1,34.3,38.7,36-21,27.3-5.9,142.8,27.9-40.5,144-126.7,164.5-69.8,20.4,57,.6-6.8,3.1,11.2,2.6,18,9.8,45.4,32.1,59.5,56.4-123.7-68.5-111.8-11.5-151.2Z"/>
        <path class="cls-3" d="M323.6,243.8c57-39.4-.3,14.5,18.3-30.2,18.6-44.7-35.2-127-86.3-141.1-19.6,6.2,42,47.2,29.5,67.3,31.4,18.1-14,42.1-29.5,53.8,0,0-.2.2-.2.2-35.1,24.3-52.3-49.8-43-53.7-37.3-25,0-73-37.1-62.9-.7,41.2-44.7,98-39.1,139.7,5.7,41.6-33.6-1.7,5.1,34.3,38.7,36-21,27.3-5.9,142.8,27.9-40.5,144-126.7,164.5-69.8,20.4,57,.6-6.8,3.1,11.2,2.6,18,9.8,45.4,32.1,59.5,56.4-123.7-68.5-111.8-11.5-151.2Z"/>
        <g>
          <path class="cls-1" d="M344.4,219.3c-28.9.3-207.9,2.1-211.2,3.5-1,6.3-5.7,20.9,1.6,25,39.4-34.8,151.8-23.4,198.5-8.4,7.8-3,10.5-12.5,11.1-20.1Z"/>
          <path class="cls-1" d="M276.5,208.8c-23.6-3.4-17.6,63.2-4.7,70.2.9-1.2,2-.9,3.3-.6,2.9.9,5.8,1.9,8.7,2.6-11.5-1.8-22.8-65,6.8-65.6-26.3,2.6-12.6,55.3-7.8,62.6s-6.1-10.9-4-8.3c-.3,1.8,1.7,5.3,2.8,7.5-12.4-18.9,1.1-44.2,18.6-53,11.9,6.6-2.2,6.6,16.2,13.6,26.2,10,31-38.1,11.4-37.6-11.4.3-8,9.5-15.5,12.8-3.5-2-8.8-3.2-13.5-3.6s-10.2-.6-15-.3c-2.4-.8-6.2-1.1-8.5-.6-11.9,2.6-44.1,9.9-17.6-4.5,8.5-4.6,11.2,6.2,18.7,4.9Z"/>
        </g>
        <path class="cls-2" d="M156.5,376.3c-4.3-26.9-25.2-101.5,19.9-105-43.9,4-21.7,75.1-16.5,100.9-1.1,1.4-2.3,2.7-3.4,4.1Z"/>
        <path class="cls-2" d="M224.9,312.1c1.7-1.5,3.7-2.3,5.8-3.2-5.2-11.4-27.2-20.5-24.4-27.2-5.6,6.4,16.8,17.1,18.5,30.4Z"/>
        <path class="cls-2" d="M302.9,338.8c37.2,2.2,14.3-22.7-38.5-59.6,8,5.2,81.2,57,37.4,58.5.3.4.7.8,1.1,1.1Z"/>
        <path class="cls-2" d="M309.9,333.6c8.9-14.5,16.5-27.6,8.4-44.6,7.5,19.4.5,27.6-8.8,43.5.2.3.3.7.5,1Z"/>
        <path class="cls-2" d="M326.9,390.4c38-77.3,31.3-77.7-39.1-113,71.8,36.9,73.5,34,37,110.9.7.7,1.3,1.5,2,2.1Z"/>
      </g>
    </g>
  </g>
</svg>