<?xml version="1.0" encoding="UTF-8"?>
<svg xmlns="http://www.w3.org/2000/svg" version="1.1" viewBox="0 0 500 500">
  <defs>
    <style>
      .cls-1 {
        fill: #f5d663;
      }

      .cls-2 {
        fill: #f96282;
      }

      .cls-3 {
        fill: #dd3449;
      }
    </style>
  </defs>
  <!-- Generator: Adobe Illustrator 28.7.1, SVG Export Plug-In . SVG Version: 1.2.0 Build 142)  -->
  <g>
    <g id="Ebene_1">
      <path class="cls-2" d="M319.1,210v-15.8l10.9-75.9-47.4-8.3s-10.7,9.8-32.4,9.8h-.1c-21.8,0-32.4-9.8-32.4-9.8l-47.4,8.3,10.9,75.9v15.8l-55.6,179.4h249.2l-55.6-179.4ZM273.4,167.8c1.5-1.6.4-6.3,3-6.8,2.6-.5,7-3.8,7.4-5s-.7-1.8,1.6-4.3c-.2,1.8,3.8,3.7,3.8,3.7,0,0-1.2-4.3.6-6.4.3,5.3,6.7,4.8,8.4,4.3,1.8-.5,3.3-8.4,2.3-12.1-1-3.7-6.1-10.9-6.1-10.9,0,0,9.5,7,10.5,10.1,1,3.1.2,15.7.2,15.7,0,0,.5-3,3.6-5.6-.7,3.1-2.1,10.7-.2,11.4s2.8-1.2,4.7-8.4c.4,4.6.2,9.7-2.5,17.9s-12,9.3-12,9.3c0,0,4.8-13.8,1.3-16.2.5,3-2.1,5.3-2.1,5.3,0,0,.2-2.7-2.3-4.4-.4,9.2-17.9,12.4-17.9,12.4,3.1-1.2,1.8-6.7,1.8-6.7,0,0-2.4,2.8-5.6,2.6-3.2-.2-5.3-1.1-5.3-1.1,0,0,3.4-3.2,4.9-4.8ZM187.1,160c2.5,10,3.7,12.6,6.1,11.7s.6-11.6-.3-15.9c3.9,3.7,4.6,7.9,4.6,7.9,0,0-1-17.7.3-22,1.3-4.3,13.5-14.1,13.5-14.1,0,0-6.6,10-7.9,15.3-1.3,5.2.6,16.1,2.9,16.9,2.3.8,10.5,1.4,10.9-6,2.3,2.9.8,8.9.8,8.9,0,0,5.1-2.7,4.8-5.2,2.9,3.6,1.5,4.4,2,6.1.5,1.7,6.2,6.3,9.5,7,3.3.8,1.9,7.2,3.8,9.5,1.9,2.3,6.3,6.7,6.3,6.7,0,0-2.8,1.3-6.9,1.5-4.1.3-7.2-3.7-7.2-3.7,0,0-1.6,7.8,2.4,9.4,0,0-22.6-4.6-23.1-17.4-3.2,2.3-2.9,6.1-2.9,6.1,0,0-3.3-3.2-2.7-7.4-4.6,3.3,1.7,22.6,1.7,22.6,0,0-12-1.5-15.4-13-3.4-11.4-3.7-18.6-3.2-25ZM315.7,285.3c-2.7,27.8-12.5,42.9-15.7,45.6-.3.3-1,.1-1-.2-.1-3.2-.9-18.2-5.7-26.9-2.2,4.6-4,18-5,23.5,0,.5-1.1.4-1.1,0-.6-5.2-2.1-17.7-5.6-20.7.2,4.1-2.6,18.7-4,23.6-.1.4-1.1.4-1.1,0-.6-5.8-2.2-23.6-5.2-30.6-1.1,4.6-4,21.5-5.7,28.3-.1.5-1.1.4-1.1,0-.2-5.6-1.1-19.5-4.9-27.2-1.3,10.5-4.5,28.5-5.8,33.9-.1.4-1,.4-1.1,0-1.2-5.4-4-23.4-5.3-33.3-3,4.1-5,25.3-5.9,33.8,0,.5-1.1.5-1.1,0-.8-6.2-2-21.2-2-28.1-4.3,9.9-7.9,27.5-9.2,32.7-.1.4-1,.4-1.1,0-1.2-5.3-4-23.2-3.6-31.7-4.8,7.6-5.6,27.2-5.7,33.8,0,.5-1,.5-1.1,0-2-6.1-6.1-24-6.8-34.5-4.6,6-4.6,23.1-4.1,31.3,0,.5-1,.6-1.1,0-1.8-7.4-4.4-23.3-5.8-32.3-3.2,7.7-4.4,33.5-4.5,37.9,0,.3-.6.5-1,.3-3.3-2.1-14.4-16.7-14.4-55.4s9-60.3,12.5-65.4c.3-.4,1.1-.2,1,.2-1.6,8.7-7.2,50.8.9,67.3,3.9-23.4,8.2-41.9,10.3-46.5.2-.4,1-.3,1,.1-.4,6.4-1.1,30.6,1,39.7,2.1-13.2,7.6-32,10-36.8.2-.4,1-.3,1,.1-.3,6.6-1,32.9,2.6,48.7,1.1-15.2,6.4-36.7,9-43,.2-.4,1.1-.3,1,.1-.9,9.3-2.8,42.4,2.7,58.6.4-18,4.8-43,6.9-50.7.1-.4,1-.4,1,0,0,8.4.1,34.9,2.9,41.4.5-7.6,2.2-32.7,2.9-40.5,0-.4,1-.5,1,0,1.3,7.1,4.3,29.7,5.4,36.3,2.1-9.2,2.5-32.8,2.6-39.7,0-.4.9-.5,1,0,1.9,6,5.9,26.5,6.9,35.5,2.1-12.4,2.4-40.2,2.5-47.3,0-.4.9-.5,1,0,2.7,6.2,9.8,29.9,12.1,37.4,2-7.7,2.4-30,2.4-35.9,0-.4.8-.5,1-.1,2.8,6.2,10.3,30.7,11,37.7,1.8-3.2,3.6-31.1,4.2-38.6,0-.4.9-.5,1,0,2,6.2,6.9,28.7,8.2,37,2.3-7.4,1.7-50.5,1.4-61.2,0-.4.9-.5,1,0,2.6,7.5,8.9,35.6,6.3,62.2Z"/>
      <path class="cls-3" d="M319.1,210v-15.8l10.9-75.9-47.4-8.3s1.7,26.1-32.4,26.1h-.2c-34.1,0-32.4-26.1-32.4-26.1l-47.4,8.3,10.9,75.9v15.8l-55.6,179.4h249.2l-55.6-179.4ZM273.4,167.8c1.5-1.6.4-6.3,3-6.8,2.6-.5,7-3.8,7.4-5s-.7-1.8,1.6-4.3c-.2,1.8,3.8,3.7,3.8,3.7,0,0-1.2-4.3.6-6.4.3,5.3,6.7,4.8,8.4,4.3,1.8-.5,3.3-8.4,2.3-12.1-1-3.7-6.1-10.9-6.1-10.9,0,0,9.5,7,10.5,10.1,1,3.1.2,15.7.2,15.7,0,0,.5-3,3.6-5.6-.7,3.1-2.1,10.7-.2,11.4s2.8-1.2,4.7-8.4c.4,4.6.2,9.7-2.5,17.9s-12,9.3-12,9.3c0,0,4.8-13.8,1.3-16.2.5,3-2.1,5.3-2.1,5.3,0,0,.2-2.7-2.3-4.4-.4,9.2-17.9,12.4-17.9,12.4,3.1-1.2,1.8-6.7,1.8-6.7,0,0-2.4,2.8-5.6,2.6-3.2-.2-5.3-1.1-5.3-1.1,0,0,3.4-3.2,4.9-4.8ZM187.1,160c2.5,10,3.7,12.6,6.1,11.7s.6-11.6-.3-15.9c3.9,3.7,4.6,7.9,4.6,7.9,0,0-1-17.7.3-22,1.3-4.3,13.5-14.1,13.5-14.1,0,0-6.6,10-7.9,15.3-1.3,5.2.6,16.1,2.9,16.9,2.3.8,10.5,1.4,10.9-6,2.3,2.9.8,8.9.8,8.9,0,0,5.1-2.7,4.8-5.2,2.9,3.6,1.5,4.4,2,6.1.5,1.7,6.2,6.3,9.5,7,3.3.8,1.9,7.2,3.8,9.5,1.9,2.3,6.3,6.7,6.3,6.7,0,0-2.8,1.3-6.9,1.5-4.1.3-7.2-3.7-7.2-3.7,0,0-1.6,7.8,2.4,9.4,0,0-22.6-4.6-23.1-17.4-3.2,2.3-2.9,6.1-2.9,6.1,0,0-3.3-3.2-2.7-7.4-4.6,3.3,1.7,22.6,1.7,22.6,0,0-12-1.5-15.4-13-3.4-11.4-3.7-18.6-3.2-25ZM315.7,285.3c-2.7,27.8-12.5,42.9-15.7,45.6-.3.3-1,.1-1-.2-.1-3.2-.9-18.2-5.7-26.9-2.2,4.6-4,18-5,23.5,0,.5-1.1.4-1.1,0-.6-5.2-2.1-17.7-5.6-20.7.2,4.1-2.6,18.7-4,23.6-.1.4-1.1.4-1.1,0-.6-5.8-2.2-23.6-5.2-30.6-1.1,4.6-4,21.5-5.7,28.3-.1.5-1.1.4-1.1,0-.2-5.6-1.1-19.5-4.9-27.2-1.3,10.5-4.5,28.5-5.8,33.9-.1.4-1,.4-1.1,0-1.2-5.4-4-23.4-5.3-33.3-3,4.1-5,25.3-5.9,33.8,0,.5-1.1.5-1.1,0-.8-6.2-2-21.2-2-28.1-4.3,9.9-7.9,27.5-9.2,32.7-.1.4-1,.4-1.1,0-1.2-5.3-4-23.2-3.6-31.7-4.8,7.6-5.6,27.2-5.7,33.8,0,.5-1,.5-1.1,0-2-6.1-6.1-24-6.8-34.5-4.6,6-4.6,23.1-4.1,31.3,0,.5-1,.6-1.1,0-1.8-7.4-4.4-23.3-5.8-32.3-3.2,7.7-4.4,33.5-4.5,37.9,0,.3-.6.5-1,.3-3.3-2.1-14.4-16.7-14.4-55.4s9-60.3,12.5-65.4c.3-.4,1.1-.2,1,.2-1.6,8.7-7.2,50.8.9,67.3,3.9-23.4,8.2-41.9,10.3-46.5.2-.4,1-.3,1,.1-.4,6.4-1.1,30.6,1,39.7,2.1-13.2,7.6-32,10-36.8.2-.4,1-.3,1,.1-.3,6.6-1,32.9,2.6,48.7,1.1-15.2,6.4-36.7,9-43,.2-.4,1.1-.3,1,.1-.9,9.3-2.8,42.4,2.7,58.6.4-18,4.8-43,6.9-50.7.1-.4,1-.4,1,0,0,8.4.1,34.9,2.9,41.4.5-7.6,2.2-32.7,2.9-40.5,0-.4,1-.5,1,0,1.3,7.1,4.3,29.7,5.4,36.3,2.1-9.2,2.5-32.8,2.6-39.7,0-.4.9-.5,1,0,1.9,6,5.9,26.5,6.9,35.5,2.1-12.4,2.4-40.2,2.5-47.3,0-.4.9-.5,1,0,2.7,6.2,9.8,29.9,12.1,37.4,2-7.7,2.4-30,2.4-35.9,0-.4.8-.5,1-.1,2.8,6.2,10.3,30.7,11,37.7,1.8-3.2,3.6-31.1,4.2-38.6,0-.4.9-.5,1,0,2,6.2,6.9,28.7,8.2,37,2.3-7.4,1.7-50.5,1.4-61.2,0-.4.9-.5,1,0,2.6,7.5,8.9,35.6,6.3,62.2Z"/>
      <g>
        <path class="cls-1" d="M204.6,194.2c.6,2.3,1.1,3.8,1.1,3.8,0,0-4.7-.6-9.1-3.8h-15.6v15.8h138.2v-15.8h-114.6Z"/>
        <path class="cls-1" d="M273.4,214.3l-8.5,96.8,8.5-11.5,6,6.4,4.1-93.2s4.1,73.6,4.3,72.3,5.1-10.9,5.1-10.9l4.5,9.8-4.1-67.6s6.5,3.3,14,3.3c10.7,0,9.2-39.4-4.6-36.1-8,1.9-10,10.4-10,10.4,0,0-3.6-1.9-9-1.9s-9.6,2.1-9.6,2.1c0,0-3.4-9.2-7-10.4-19-6.1-23.8,36.1-6,39.4s12.4-9,12.4-9Z"/>
      </g>
      <polygon class="cls-2" points="149.1 389.1 173.1 306.2 152.7 389.1 149.1 389.1"/>
      <polygon class="cls-2" points="210.3 389.1 214.1 389.1 214.1 329.5 210.3 389.1"/>
      <polygon class="cls-2" points="258.7 389.1 256.5 310.3 262.3 389.1 258.7 389.1"/>
      <polygon class="cls-2" points="321.8 389.1 308.7 340.1 318.7 389.1 321.8 389.1"/>
      <polygon class="cls-2" points="366.6 389.1 327.8 281.2 363.5 389.1 366.6 389.1"/>
    </g>
  </g>
</svg>