<?xml version="1.0" encoding="UTF-8"?>
<svg xmlns="http://www.w3.org/2000/svg" version="1.1" viewBox="0 0 500 500">
  <defs>
    <style>
      .cls-1 {
        fill: #f5d663;
      }

      .cls-2 {
        fill: #f96282;
      }

      .cls-3 {
        fill: #dd3449;
      }
    </style>
  </defs>
  <!-- Generator: Adobe Illustrator 28.7.1, SVG Export Plug-In . SVG Version: 1.2.0 Build 142)  -->
  <g>
    <g id="Ebene_1">
      <path class="cls-2" d="M319.1,210v-15.8l10.9-75.9-47.4-8.3s-10.7,9.8-32.4,9.8h-.1c-21.8,0-32.4-9.8-32.4-9.8l-47.4,8.3,10.9,75.9v15.8l-55.6,179.4h249.2l-55.6-179.4Z"/>
      <path class="cls-3" d="M319.1,210v-15.8l10.9-75.9-47.4-8.3s1.7,26.1-32.4,26.1h-.2c-34.1,0-32.4-26.1-32.4-26.1l-47.4,8.3,10.9,75.9v15.8l-55.6,179.4h249.2l-55.6-179.4Z"/>
      <g>
        <rect class="cls-1" x="181.1" y="194.2" width="138.2" height="15.8"/>
        <path class="cls-1" d="M273.4,214.3l-8.5,96.8,8.5-11.5,6,6.4,4.1-93.2s4.1,73.6,4.3,72.3,5.1-10.9,5.1-10.9l4.5,9.8-4.1-67.6s6.5,3.3,14,3.3c10.7,0,9.2-39.4-4.6-36.1-8,1.9-10,10.4-10,10.4,0,0-3.6-1.9-9-1.9s-9.6,2.1-9.6,2.1c0,0-3.4-9.2-7-10.4-19-6.1-23.8,36.1-6,39.4s12.4-9,12.4-9Z"/>
      </g>
      <polygon class="cls-2" points="149.1 389.1 173.1 306.2 152.7 389.1 149.1 389.1"/>
      <polygon class="cls-2" points="210.3 389.1 214.1 389.1 214.1 329.5 210.3 389.1"/>
      <polygon class="cls-2" points="258.7 389.1 256.5 310.3 262.3 389.1 258.7 389.1"/>
      <polygon class="cls-2" points="321.8 389.1 308.7 340.1 318.7 389.1 321.8 389.1"/>
      <polygon class="cls-2" points="366.6 389.1 327.8 281.2 363.5 389.1 366.6 389.1"/>
    </g>
  </g>
</svg>