<?xml version="1.0" encoding="UTF-8"?>
<svg xmlns="http://www.w3.org/2000/svg" version="1.1" viewBox="0 0 500 500">
  <defs>
    <style>
      .cls-1 {
        fill: #f5d663;
      }

      .cls-2 {
        fill: #f96282;
      }

      .cls-3 {
        fill: #dd3449;
      }
    </style>
  </defs>
  <!-- Generator: Adobe Illustrator 28.7.1, SVG Export Plug-In . SVG Version: 1.2.0 Build 142)  -->
  <g>
    <g id="Ebene_1">
      <g>
        <path class="cls-2" d="M356.9,213.3v-21.8l-27.1-140.9-47.4-8.3s-10.7,9.8-32.4,9.8h-.1c-21.8,0-32.4-9.8-32.4-9.8l-47.4,8.3-27.2,140.9v21.8l-40.6,240.6h124.7l173.4,6.8-43.6-247.4Z"/>
        <path class="cls-3" d="M356.9,213.3v-21.8l-27.1-140.9-47.4-8.3s1.7,26.1-32.4,26.1h-.2c-34.1,0-32.4-26.1-32.4-26.1l-47.4,8.3-27.2,140.9v21.8l-40.6,240.6h124.7l173.4,6.8-43.6-247.4Z"/>
        <g>
          <rect class="cls-1" x="143" y="191.5" width="214.3" height="21.8"/>
          <path class="cls-1" d="M273.3,214.6l-8.5,96.8,8.5-11.5,6,6.4,4.1-93.2s4.1,73.6,4.3,72.3,5.1-10.9,5.1-10.9l4.5,9.8-4.1-67.6s6.5,3.3,14,3.3c10.7,0,9.2-39.4-4.6-36.1-8,1.9-10,10.4-10,10.4,0,0-3.6-1.9-9-1.9s-9.6,2.1-9.6,2.1c0,0-3.4-9.2-7-10.4-19-6.1-23.8,36.1-6,39.4s12.4-9,12.4-9Z"/>
        </g>
        <polygon class="cls-2" points="125.9 453.6 173 306.5 129.5 453.6 125.9 453.6"/>
        <polygon class="cls-2" points="187.2 453.6 191 453.6 214 329.9 187.2 453.6"/>
        <polygon class="cls-2" points="235.6 453.6 256.4 310.6 239.2 453.6 235.6 453.6"/>
        <polygon class="cls-2" points="321.7 389.4 308.6 340.4 318.6 389.4 321.7 389.4"/>
        <polygon class="cls-2" points="392.4 460.4 327.7 281.5 389.4 460.4 392.4 460.4"/>
      </g>
    </g>
  </g>
</svg>