<?xml version="1.0" encoding="UTF-8"?>
<svg xmlns="http://www.w3.org/2000/svg" version="1.1" viewBox="0 0 500 500">
  <defs>
    <style>
      .cls-1 {
        fill: #006088;
      }

      .cls-2 {
        display: none;
      }
    </style>
  </defs>
  <!-- Generator: Adobe Illustrator 28.7.1, SVG Export Plug-In . SVG Version: 1.2.0 Build 142)  -->
  <g>
    <g id="iron">
      <g>
        <path class="cls-1" d="M1,230.7v17.3c0,4.4,3.6,8.1,8.1,8.1h158.2c2.6,8.2,11.4,14.2,22,14.2,10.5,0,19.3-6,22-14.2h11.1c2.6,8.2,11.4,14.2,22,14.2,10.5,0,19.3-6,22-14.2h11.1c2.6,8.2,11.4,14.2,22,14.2,10.5,0,19.3-6,22-14.2h11.1c2.6,8.2,11.4,14.2,22,14.2,10.5,0,19.3-6,22-14.2h11.1c2.6,8.2,11.4,14.2,22,14.2,10.5,0,19.3-6,22-14.2h8.4c3,7.7,11.5,13.2,21.6,13.2,10.1,0,18.6-5.6,21.6-13.2h8.2c4.4,0,8.1-3.6,8.1-8.1v-17.3c0-4.4-3.6-8.1-8.1-8.1h-84.4v-12.1c0-4.4-3.6-8.1-8.1-8.1h-51.5c.2-.8.4-1.6.4-2.4v-36.5h37c35.8,0,65.1-29.3,65.1-65.1h0c0-4.3,0-9.8,0-15h31.5c4.4,0,8.1-3.6,8.1-8.1v-39.7c0-4.4-3.6-8.1-8.1-8.1h-62c-1.1,0-2.1.2-3,.6-12.2,5-25.5,7-38.7,7h-120.5c-13.2,0-26.5-2-38.7-7-.9-.4-1.9-.6-3-.6h-62c-4.4,0-8.1,3.6-8.1,8.1v39.7c0,4.4,3.6,8.1,8.1,8.1h31.7c-.1,5.3-.2,10.8-.2,15h0c0,35.8,29.3,65.1,65.1,65.1h37v36.5c0,.8.1,1.6.4,2.4h-55.8c-4.4,0-8.1,3.6-8.1,8.1v12.1h-106.9s-4.5-11.7-4.5-11.7c-1.9-4.9.8-10.4,5.8-11.9l5.8-1.8c4.1-1.3,10.4,5.7,14,8.1l1.3.9c.6.4,1.4.5,2,.1l7.3-3.6c7.5-3.7,10.1-8.3,14.3-15.5l10.2-17.7c.6-1,.2-2.2-.8-2.8l-30.8-16.7c-5.8-3.1-12.7-3.1-18.5,0h0c-10.8,5.8-21.6,11.9-30.8,3.8,0-.1-.2-.3-.2-.4-.4-.7-.8-1.4-1.2-2.1l-7-10.5c-.7-1-.9-2.2-.6-3.4l3.8-16.5c.4-1.7-.6-2.9-2.3-4l-8.2-4.1c-3.6-1.8-7.6-2.9-11.7-2.9-6.8-.1-13.6,2.1-19.1,6.4-.4.3-.7.7-.8,1.1-1.2,2.7-4.8,10-4.8,10-.1.3-.4.6-.7.8-.4.3-.9.6-1.3.9l-2.1,1.9c-1.1,1-2.3,1.8-3.6,2.7-3.1,2.2-3,7.1.6,9l18.5,5.1c.7.4,1.1,1.1,1.1,1.8l-.3,18.6c-.2,9.9,4.4,19.3,12.3,25.4l10.3,7.9c.8.6,1,1.8.5,2.7l-10.7,18.3H9.1c-4.4,0-8.1,3.6-8.1,8.1ZM379.4,137.2h-124.9c-25.4,0-46.2-20.8-46.2-46.2v-7.4h6.7c1.1,0,2.1-.2,3-.6,12.2-5,25.5-7,38.7-7h120.5c13.2,0,26.5,2,38.7,7,.9.4,1.9.6,3,.6h6.7v7.4c0,25.4-20.8,46.2-46.2,46.2Z"/>
        <path class="cls-1" d="M6,422.4c.1,2.7,1,5.2,2.6,7.3l1.3,1.8h-2.1c-2.1.3-3.7,2-3.7,4.1l.2,32.7c0,2.2,1.8,4,4,4h484.3c3.2,0,5.8-2.6,5.8-5.8v-2c0-3.2-2.6-5.8-5.8-5.8h-8.1c-3.2.1-5.8-2.4-5.8-5.6l-.3-21.2,21.3-148.5c.7-4.9.3-9.9-1.1-14.6l-4.7-15.9c-1.8-6-7.3-10.1-13.6-10.1h-19.2c-4.1,0-8.1,1.8-10.7,4.9l-1.8,26.8H.1s5.9,147.8,5.9,147.8ZM303.6,431.9c0-22.3,24.3-40.4,54.3-40.4,30,0,54.3,18.1,54.3,40.4h-108.7ZM112.6,431.9c0-22.3,24.3-40.4,54.3-40.4,30,0,54.3,18.1,54.3,40.4h-108.7Z"/>
      </g>
    </g>
    <g id="scissors" class="cls-2">
      <g>
        <path class="cls-1" d="M499.7,444.3c-.7-19.9-15.9-35-30.6-49.7-14.7-14.8-51.5-48.6-62.8-60.4-28.3-29.8-70.7-11.6-91.1-26.4-42.9-31.3-19.7-38.4-40.2-79.1L106.2,56.3c-3.7-3.8-51.1-43-81.2-22.8l241.7,270.8s8.4,14.4,32.3,24.4c23.9,10,22.8,17.7,29.2,35.3s25.3,58.8,59.8,85.5c34.5,26.8,55.2,36.3,75.8,33.5,20.5-2.7,36.6-19,35.9-38.9ZM484.2,456.2c-11.9,20-27.7,14.8-45.2,8.4-17.5-6.5-49.4-22.2-72.6-58.2-23.2-36-27.9-54.4-6.2-69.9,21.8-15.6,49.1,19.2,72.9,42.8,17.6,15.9,66.5,51,51,77Z"/>
        <path class="cls-1" d="M351.2,32.5c-29.8,24.8-20.1,53.1-19.8,69.3.7,33-45,91.8-62.6,105.6L.3,436.4s28,17.2,124.6-49.5c76.4-56.2,177.4-130.7,174.4-138,2.5-17,19-114,72.7-138.3,59-26.7,52.2-58.6,50.3-67.9-1.9-9.2-26.2-47.7-71.2-10.2ZM402.5,31.5c28,19.6,2,47.6-2.7,52.3-4.7,4.8-31.3,26.7-50.5,12.4-19.1-14.3-9.5-36.4,1.9-50,7.2-9,33.1-27.4,51.3-14.7Z"/>
        <circle class="cls-1" cx="258.8" cy="252.2" r="7.3" transform="translate(-75.9 388.6) rotate(-66.4)"/>
      </g>
    </g>
    <g id="needle" class="cls-2">
      <path class="cls-1" d="M296.1,375.9c11,57.3,54.3,128,69.1,120.8,14.8-7.2-13.4-85.1-51.3-129.4C289.5,317.7,166.5,60.2,130.8,2.8c14.1,39.9,158,357.6,165.3,373.1ZM341.4,427.5c14.1,29.3,22.3,54.6,18.3,56.5-4,1.9-18.7-20.3-32.7-49.5-14.1-29.3-22.3-54.6-18.3-56.5,4-1.9,18.7,20.3,32.8,49.5Z"/>
    </g>
  </g>
</svg>