<?xml version="1.0" encoding="UTF-8"?>
<svg xmlns="http://www.w3.org/2000/svg" version="1.1" xmlns:xlink="http://www.w3.org/1999/xlink" viewBox="0 0 500 500">
  <defs>
    <style>
      .cls-1 {
        fill: #12ccdb;
      }

      .cls-2 {
        fill: #0fa0b3;
      }

      .cls-3, .cls-4 {
        fill: #fff;
      }

      .cls-4 {
        display: none;
      }

      .cls-5 {
        fill: #60314d;
      }

      .cls-6 {
        fill: #492539;
      }
    </style>
  </defs>
  <!-- Generator: Adobe Illustrator 28.7.1, SVG Export Plug-In . SVG Version: 1.2.0 Build 142)  -->
  <g>
    <g id="Ebene_1">
      <path class="cls-6" d="M177.7,218.1c-3.8-12.7-4.1-20.6-3.5-27.8,2.8,11.2,4.1,14,6.8,13,2.7-1,.7-12.8-.3-17.6,4.4,4.1,5.1,8.8,5.1,8.8,0,0-1.1-19.6.3-24.4,1.4-4.8,15-15.7,15-15.7,0,0-7.3,11.2-8.8,16.9-1.1,4.5,0,12.8,1.6,16.7l10.1-39.9-49.3-12.5-54.5,215.4,49.3,12.5,34.4-135.9c-2.5-2.1-4.9-5.1-6.2-9.4Z"/>
      <g>
        <path class="cls-6" d="M305.2,164.3c-1.2-5-6.9-14.1-8.4-16.4h-.5c0,.1,7.9,31.2,7.9,31.2,1.3-4.3,1.9-11,1-14.9Z"/>
        <path class="cls-6" d="M345.6,135.5l-48.6,12.3c2.6,2.2,13.1,11,14.4,15.2,1.4,4.8.3,24.4.3,24.4,0,0,.7-4.7,5.1-8.8-1,4.8-3,16.7-.3,17.6,2.7,1,4-1.8,6.8-13,.6,7.2.3,15.1-3.5,27.8-1.1,3.7-3.1,6.5-5.2,8.6l36.4,143.7,49.3-12.5-54.5-215.4Z"/>
      </g>
      <rect class="cls-2" x="96.9" y="344.4" width="56.6" height="21.1" transform="translate(90.9 -19.9) rotate(14.2)"/>
      <rect class="cls-2" x="346.6" y="344.4" width="56.6" height="21.1" transform="translate(825.4 607.2) rotate(165.8)"/>
      <path class="cls-6" d="M272.6,221.2c4.4-1.8,2.6-10.4,2.6-10.4,0,0-3.5,4.4-8,4.1s-7.6-1.7-7.6-1.7c0,0,4.9-4.9,7-7.5s.6-9.7,4.2-10.6c3.7-.8,10-5.9,10.6-7.8s-1-2.8,2.3-6.7c-.2,2.4,3.9,5,5.1,5.6v-1.4c-.2-1.4-.4-3.6,0-5.6v-54.9h-76.7v66.5c1-1,1.8-2.1,1.7-3.2,3.2,4,1.7,4.9,2.3,6.7.6,1.9,6.9,6.9,10.6,7.8,3.7.8,2.1,8,4.2,10.6s7,7.5,7,7.5c0,0-3.1,1.4-7.6,1.7s-8-4.1-8-4.1c0,0-1.8,8.6,2.6,10.4,0,0-6.4-1.3-12.8-4.4v73h1.2c2.1-8,4.5-15.1,5.8-17.7.2-.4,1-.3,1,.1-.2,2.9-.4,9.6-.2,17.6h8.3c1.3-5.3,2.6-9.6,3.5-11.8.2-.4,1.1-.3,1,.1-.2,2.5-.5,6.6-.8,11.7h9.4c.3-1.5.7-2.9.9-3.9.1-.4,1-.4,1,0,0,1,0,2.3,0,3.8h5.6c0-1.1.2-2.1.2-2.9,0-.4,1-.5,1,0,.1.8.3,1.8.5,2.9h7.4c0-2.7.1-4.9.1-6.3,0-.4.9-.5,1,0,.5,1.4,1,3.7,1.6,6.4h7.3c.2-8,.3-15.1.3-18.2,0-.4.9-.5,1,0,1.3,3.1,3.8,10.6,6.2,18.3h7.8c.3-7.1.5-14,.5-16.8,0-.4.8-.5,1-.1.9,2,2.2,5.7,3.7,10.2v-75.1c-7.3,4.4-16.1,6.2-16.1,6.2Z"/>
      <rect class="cls-5" x="250.4" y="124.2" width="1.6" height="172.6"/>
      <polygon class="cls-2" points="250.1 136.2 279 107.1 221.2 107.1 250.1 136.2"/>
      <polygon class="cls-2" points="221.2 107.1 212 124.2 231.9 176 250.1 136.2 221.2 107.1"/>
      <polygon class="cls-2" points="279.1 107.1 288.7 124.2 268.8 176 250.1 136.2 279.1 107.1"/>
      <polygon class="cls-6" points="221.2 107.1 212 124.2 233.1 166.6 250.1 136.2 221.2 107.1"/>
      <polygon class="cls-6" points="279.1 107.1 288.7 124.2 267.6 166.6 250.1 136.2 279.1 107.1"/>
      <g>
        <rect class="cls-1" x="243.4" y="138.3" width="13.1" height="18.9" rx="3.5" ry="3.5"/>
        <path class="cls-2" d="M243.4,140.5l-10.3-5.5c-2-1-4.4.4-4.4,2.6v19.7c0,2.3,2.5,3.7,4.5,2.6l10.2-6v-13.5Z"/>
        <path class="cls-2" d="M256.5,140.5l10.3-5.5c2-1,4.4.4,4.4,2.6v19.7c0,2.3-2.5,3.7-4.5,2.6l-10.2-6v-13.5Z"/>
      </g>
      <image width="68" height="65" transform="translate(170.1 10.6) scale(2.4 7.1)" xlink:href="jackettorn-1.png"/>
      <path id="mundkopie" class="cls-4" d="M195.8,255.2c0-.4-.7-.6-1-.2-3.5,5.1-12.6,28.7-12.6,65.4s11.1,53.3,14.4,55.4.9,0,1-.3c.2-4.4,1.3-30.2,4.5-37.9,1.4,9,4,24.9,5.8,32.3s1.2.4,1.1,0c-.5-8.2-.5-25.3,4.1-31.3.7,10.5,4.8,28.4,6.8,34.5s1.1.4,1.1,0c.1-6.7.9-26.2,5.7-33.8-.4,8.5,2.3,26.4,3.6,31.7s1,.4,1.1,0c1.4-5.2,5-22.8,9.2-32.7,0,6.8,1.2,21.9,2,28.1s1.1.5,1.1,0c.9-8.5,2.9-29.7,5.9-33.8,1.3,10,4.1,28,5.3,33.3s1,.4,1.1,0c1.3-5.4,4.6-23.4,5.8-33.9,3.8,7.7,4.8,21.6,4.9,27.2s1,.5,1.1,0c1.7-6.9,4.6-23.7,5.7-28.3,3,7,4.6,24.8,5.2,30.6s1,.5,1.1,0c1.5-4.9,4.2-19.5,4-23.6,3.6,3,5,15.5,5.6,20.7s1,.5,1.1,0c1-5.5,2.8-18.9,5-23.5,4.8,8.7,5.6,23.7,5.7,26.9s.7.5,1,.2c3.1-2.7,12.9-17.8,15.7-45.6,2.6-26.6-3.6-54.7-6.3-62.2-.1-.4-1-.3-1,0,.2,10.7.9,53.8-1.4,61.2-1.3-8.2-6.2-30.8-8.2-37s-1-.4-1,0c-.6,7.5-2.4,35.4-4.2,38.6-.7-7-8.2-31.4-11-37.7s-1-.3-1,.1c0,5.9-.5,28.2-2.4,35.9-2.3-7.5-9.4-31.2-12.1-37.4s-1-.3-1,0c0,7.1-.3,34.9-2.5,47.3-.9-9.1-5-29.5-6.9-35.5s-1-.4-1,0c-.1,7-.6,30.5-2.6,39.7-1.1-6.6-4.1-29.1-5.4-36.3s-1-.4-1,0c-.7,7.8-2.4,32.9-2.9,40.5-2.8-6.6-2.9-33-2.9-41.4s-.9-.5-1,0c-2.1,7.7-6.5,32.6-6.9,50.7-5.4-16.1-3.6-49.3-2.7-58.6s-.9-.5-1-.1c-2.6,6.3-7.9,27.8-9,43-3.6-15.8-2.9-42.1-2.6-48.7s-.8-.5-1-.1c-2.4,4.8-7.9,23.6-10,36.8-2.1-9-1.3-33.2-1-39.7s-.8-.5-1-.1c-2,4.5-6.4,23.1-10.3,46.5-8.1-16.4-2.5-58.6-.9-67.3Z"/>
      <path id="Mund" class="cls-3" d="M195.8,255.2c0-.4-.7-.6-1-.2-3.5,5.1-12.6,28.7-12.6,65.4s11.1,53.3,14.4,55.4.9,0,1-.3c.2-4.4,1.3-30.2,4.5-37.9,1.4,9,4,24.9,5.8,32.3s1.2.4,1.1,0c-.5-8.2-.5-25.3,4.1-31.3.7,10.5,4.8,28.4,6.8,34.5s1.1.4,1.1,0c.1-6.7.9-26.2,5.7-33.8-.4,8.5,2.3,26.4,3.6,31.7s1,.4,1.1,0c1.4-5.2,5-22.8,9.2-32.7,0,6.8,1.2,21.9,2,28.1s1.1.5,1.1,0c.9-8.5,2.9-29.7,5.9-33.8,1.3,10,4.1,28,5.3,33.3s1,.4,1.1,0c1.3-5.4,4.6-23.4,5.8-33.9,3.8,7.7,4.8,21.6,4.9,27.2s1,.5,1.1,0c1.7-6.9,4.6-23.7,5.7-28.3,3,7,4.6,24.8,5.2,30.6s1,.5,1.1,0c1.5-4.9,4.2-19.5,4-23.6,3.6,3,5,15.5,5.6,20.7s1,.5,1.1,0c1-5.5,2.8-18.9,5-23.5,4.8,8.7,5.6,23.7,5.7,26.9s.7.5,1,.2c3.1-2.7,12.9-17.8,15.7-45.6,2.6-26.6-3.6-54.7-6.3-62.2-.1-.4-1-.3-1,0,.2,10.7.9,53.8-1.4,61.2-1.3-8.2-6.2-30.8-8.2-37s-1-.4-1,0c-.6,7.5-2.4,35.4-4.2,38.6-.7-7-8.2-31.4-11-37.7s-1-.3-1,.1c0,5.9-.5,28.2-2.4,35.9-2.3-7.5-9.4-31.2-12.1-37.4s-1-.3-1,0c0,7.1-.3,34.9-2.5,47.3-.9-9.1-5-29.5-6.9-35.5s-1-.4-1,0c-.1,7-.6,30.5-2.6,39.7-1.1-6.6-4.1-29.1-5.4-36.3s-1-.4-1,0c-.7,7.8-2.4,32.9-2.9,40.5-2.8-6.6-2.9-33-2.9-41.4s-.9-.5-1,0c-2.1,7.7-6.5,32.6-6.9,50.7-5.4-16.1-3.6-49.3-2.7-58.6s-.9-.5-1-.1c-2.6,6.3-7.9,27.8-9,43-3.6-15.8-2.9-42.1-2.6-48.7s-.8-.5-1-.1c-2.4,4.8-7.9,23.6-10,36.8-2.1-9-1.3-33.2-1-39.7s-.8-.5-1-.1c-2,4.5-6.4,23.1-10.3,46.5-8.1-16.4-2.5-58.6-.9-67.3Z"/>
      <path id="AugeL" class="cls-3" d="M237.8,220.1s-3.1,1.4-7.6,1.7-8-4.1-8-4.1c0,0-1.8,8.6,2.6,10.4,0,0-25.1-5.1-25.6-19.3-3.5,2.5-3.2,6.8-3.2,6.8,0,0-3.7-3.5-3-8.2-5.1,3.7,1.8,25.1,1.8,25.1,0,0-13.3-1.7-17.2-14.4s-4.1-20.6-3.5-27.8c2.8,11.2,4.1,14,6.8,13s.7-12.8-.3-17.6c4.4,4.1,5.1,8.8,5.1,8.8,0,0-1.1-19.6.3-24.4s15-15.7,15-15.7c0,0-7.3,11.2-8.8,16.9s.7,17.9,3.2,18.8,11.6,1.6,12.1-6.6c2.5,3.2.8,9.9.8,9.9,0,0,5.6-3,5.4-5.8,3.2,4,1.7,4.9,2.3,6.7s6.9,6.9,10.6,7.8,2.1,8,4.2,10.6,7,7.5,7,7.5Z"/>
      <path id="AugeR" class="cls-3" d="M259.6,213.1s3.1,1.4,7.6,1.7,8-4.1,8-4.1c0,0,1.8,8.6-2.6,10.4,0,0,25.1-5.1,25.6-19.3,3.5,2.5,3.2,6.8,3.2,6.8,0,0,3.7-3.5,3-8.2,5.1,3.7-1.8,25.1-1.8,25.1,0,0,13.3-1.7,17.2-14.4,3.8-12.7,4.1-20.6,3.5-27.8-2.8,11.2-4.1,14-6.8,13s-.7-12.8.3-17.6c-4.4,4.1-5.1,8.8-5.1,8.8,0,0,1.1-19.6-.3-24.4s-15-15.7-15-15.7c0,0,7.3,11.2,8.8,16.9s-.7,17.9-3.2,18.8-11.6,1.6-12.1-6.6c-2.5,3.2-.8,9.9-.8,9.9,0,0-5.6-3-5.4-5.8-3.2,4-1.7,4.9-2.3,6.7s-6.9,6.9-10.6,7.8-2.1,8-4.2,10.6-7,7.5-7,7.5Z"/>
      <path class="cls-2" d="M288.7,124.2l-16.8,70.5c3.7-1.4,9-5.8,9.5-7.4.6-1.9-1-2.8,2.3-6.7-.3,2.8,5.4,5.8,5.4,5.8,0,0-1.7-6.6.8-9.9.4,8.2,9.5,7.5,12.1,6.6,2.5-.8,4.7-13,3.2-18.8-1.4-5.8-8.8-16.9-8.8-16.9,0,0,13.6,10.9,15,15.7,1.4,4.8.3,24.4.3,24.4,0,0,.7-4.7,5.1-8.8-1,4.8-3,16.7-.3,17.6,2.7,1,4-1.8,6.8-13,.6,7.2.3,15.1-3.5,27.8-3.8,12.7-17.2,14.4-17.2,14.4,0,0,6.9-21.5,1.8-25.1.7,4.7-3,8.2-3,8.2,0,0,.3-4.2-3.2-6.8-.6,14.3-25.6,19.3-25.6,19.3,4.4-1.8,2.6-10.4,2.6-10.4,0,0-3.5,4.4-8,4.1,0,0,0,0-.1,0l-15.9,66.5-15.1-60.5c-1.3.4-3.4.9-5.9,1.1-4.5.3-8-4.1-8-4.1,0,0-1.8,8.6,2.6,10.4,0,0-25.1-5.1-25.6-19.3-3.5,2.5-3.2,6.8-3.2,6.8,0,0-3.7-3.5-3-8.2-5.1,3.7,1.8,25.1,1.8,25.1,0,0-13.3-1.7-17.2-14.4-3.8-12.7-4.1-20.6-3.5-27.8,2.8,11.2,4.1,14,6.8,13,2.7-1,.7-12.8-.3-17.6,4.4,4.1,5.1,8.8,5.1,8.8,0,0-1.1-19.6.3-24.4,1.4-4.8,15-15.7,15-15.7,0,0-7.3,11.2-8.8,16.9-1.4,5.8.7,17.9,3.2,18.8,2.5.8,11.6,1.6,12.1-6.6,2.5,3.2.8,9.9.8,9.9,0,0,5.6-3,5.4-5.8,3.2,4,1.7,4.9,2.3,6.7.6,1.9,6.9,6.9,10.6,7.8,3.7.8,2.1,8,4.2,10.6,1.1,1.3,3,3.3,4.5,4.9l-23.3-93.4-58.1,10.9,18.2,257.2h155.4l18.2-257.2-57.1-10.9ZM318.1,316.7c-2.7,27.8-12.5,42.9-15.7,45.6-.3.3-1,.1-1-.2-.1-3.2-.9-18.2-5.7-26.9-2.2,4.6-4,18-5,23.5,0,.5-1.1.4-1.1,0-.6-5.2-2.1-17.7-5.6-20.7.2,4.1-2.6,18.7-4,23.6-.1.4-1.1.4-1.1,0-.6-5.8-2.2-23.6-5.2-30.6-1.1,4.6-4,21.5-5.7,28.3-.1.5-1.1.4-1.1,0-.2-5.6-1.1-19.5-4.9-27.2-1.3,10.5-4.5,28.5-5.8,33.9-.1.4-1,.4-1.1,0-1.2-5.4-4-23.4-5.3-33.3-3,4.1-5,25.3-5.9,33.8,0,.5-1.1.5-1.1,0-.8-6.2-2-21.2-2-28.1-4.3,9.9-7.9,27.5-9.2,32.7-.1.4-1,.4-1.1,0-1.2-5.3-4-23.2-3.6-31.7-4.8,7.6-5.6,27.2-5.7,33.8,0,.5-1,.5-1.1,0-2-6.1-6.1-24-6.8-34.5-4.6,6-4.6,23.1-4.1,31.3,0,.5-1,.6-1.1,0-1.8-7.4-4.4-23.3-5.8-32.3-3.2,7.7-4.4,33.5-4.5,37.9,0,.3-.6.5-1,.3-3.3-2.1-14.4-16.7-14.4-55.4s9-60.3,12.5-65.4c.3-.4,1.1-.2,1,.2-1.6,8.7-7.2,50.8.9,67.3,3.9-23.4,8.2-41.9,10.3-46.5.2-.4,1-.3,1,.1-.4,6.4-1.1,30.6,1,39.7,2.1-13.2,7.6-32,10-36.8.2-.4,1-.3,1,.1-.3,6.6-1,32.9,2.6,48.7,1.1-15.2,6.4-36.7,9-43,.2-.4,1.1-.3,1,.1-.9,9.3-2.8,42.4,2.7,58.6.4-18,4.8-43,6.9-50.7.1-.4,1-.4,1,0,0,8.4.1,34.9,2.9,41.4.5-7.6,2.2-32.7,2.9-40.5,0-.4,1-.5,1,0,1.3,7.1,4.3,29.7,5.4,36.3,2.1-9.2,2.5-32.8,2.6-39.7,0-.4.9-.5,1,0,1.9,6,5.9,26.5,6.9,35.5,2.1-12.4,2.4-40.2,2.5-47.3,0-.4.9-.5,1,0,2.7,6.2,9.8,29.9,12.1,37.4,2-7.7,2.4-30,2.4-35.9,0-.4.8-.5,1-.1,2.8,6.2,10.3,30.7,11,37.7,1.8-3.2,3.6-31.1,4.2-38.6,0-.4.9-.5,1,0,2,6.2,6.9,28.7,8.2,37,2.3-7.4,1.7-50.5,1.4-61.2,0-.4.9-.5,1,0,2.6,7.5,8.9,35.6,6.3,62.2Z"/>
    </g>
  </g>
</svg>