<?xml version="1.0" encoding="UTF-8"?>
<svg xmlns="http://www.w3.org/2000/svg" version="1.1" viewBox="0 0 500 500">
  <defs>
    <style>
      .cls-1 {
        fill: #12ccdb;
      }

      .cls-2 {
        fill: #0fa0b3;
      }

      .cls-3 {
        fill: #60314d;
      }

      .cls-4 {
        fill: #492539;
      }
    </style>
  </defs>
  <!-- Generator: Adobe Illustrator 28.7.1, SVG Export Plug-In . SVG Version: 1.2.0 Build 142)  -->
  <g>
    <g id="Ebene_1">
      <g>
        <path class="cls-4" d="M178.4,189.5c26.9,5.4,29.2-2.1,29.7,32.2-9.6-17-103.6-4.1-102.1-85.1,18.1.6,36.3,1,54.4,1.4.9,93.8-31.9,142.2,18,51.5Z"/>
        <path class="cls-4" d="M279,231c-7.2,6-12.3.8-21.8,2.7,117.9-49.3,19.6-73.1,121.6-99.2-6.4-16.9-14-33-21.8-49.2-48.9,25.4-45.2,190-77.9,145.7Z"/>
        <path class="cls-2" d="M103.2,128.4c20.1.6,40.2,1.1,60.3,1.6.1,6.9.3,13.8.3,20.7-20.5-.9-40.9-1.7-61.4-1.7.5-6.9.7-13.7.8-20.6Z"/>
        <path class="cls-2" d="M388.5,135c-7-19.4-14.3-38-25.4-55.4-7.2,2.9-14.5,6.1-21.2,10,5.6,17.9,14.7,34.5,21.6,52,8.4-2,16.6-4.6,25-6.6Z"/>
        <path class="cls-4" d="M293.4,320.8c-58.2,55.4-38.1-43.1-78.9,60.8-40.6-43.8-34.8-112.1,1.9-153.4,5.6,35.1,34.6,36.9,47.3,12.5-43.6-11.4,25.2,82.4,29.6,80.1Z"/>
        <path class="cls-3" d="M239.6,323.2c-.6-.2-1.3-.4-2-.6,15.4-27.8-9.9-71.6-8.2-75,.3,0,.5.2.8.3-1.4,2.6,23.4,48.9,9.4,75.3Z"/>
        <path class="cls-2" d="M177.9,189.2c43.3-.2,29.2,1.1,38.6,38.9-10.9,19.5-1.8,69.5,24,93.3,43.6-14.5-21-82.7,23.3-80.9-.4-9.9,7.9-8.6,15.1-9.8,19,40.6,38.4,71.3,52.3,114.9-136.1,15.1-14,11.2-104.1,72.6-95.7-38-51.8-137.3-49.3-229.2Z"/>
        <path class="cls-2" d="M227.3,250.3c10.4.4,20.7-8.9,28.5-15-20.1,6.4-19.3,2.2-26.7-15.6-1,4.8-8.2,30.1-1.8,30.6Z"/>
        <path class="cls-2" d="M229,219.7c-3.8,3-8,6.7-12.5,8.5-18.8,46-23,46.4,21.7,27-3.3,0-20.9,6.2-10.9-4.9-6.4-.5.7-25.8,1.8-30.6Z"/>
        <path class="cls-2" d="M255.7,235.3c5.4.3,10.2,9.6,8.1,5.4-67.1-20.4-5.3-74.3,21.7,31.3-13.9-49.6-17.3-47.8-58.3-21.7,10.4.4,20.7-8.9,28.5-15Z"/>
        <path class="cls-4" d="M229,219.7c-3.8,3-8,6.7-12.5,8.5-4.4,13.6-21.1,45.3,4.7,33.7,3-3.7-.3-6.6,6.1-11.6-6.4-.5.7-25.8,1.8-30.6Z"/>
        <path class="cls-4" d="M255.7,235.3c5.4.3,10.2,9.6,8.1,5.4-49.9-13-21.3-3.7-8.3-6.7-11.4,4.3-19,8.7-28.3,16.4,10.4.4,20.7-8.9,28.5-15Z"/>
        <g>
          <path class="cls-1" d="M225.7,251.2c.7-.5,1.9-1.2,2.9-1.4,1-.2,1.2-.8,1.4-2,.4-1.8,2-4.1,3.9-4.6,1.2-.3,2.9.2,2.5,1.7-.3,1.2-2.3,3.3-3.3,4.4-1.3,1.4-5.5,3.7-6.6,3.7-1.7,0-3.5.6-3.3-.7.1-.8,1.8-.8,2.5-1.3Z"/>
          <path class="cls-2" d="M223,252.3c-2.4,1.2-4,.3-5.7-1.2-1.3-1.2-1.6-2-2.9,0-2.7,4.1-6.7,9.7-5.7,14.6.5,2.3,5.8-.8,7.6-2.6,2.3-2.3,7.5-6.3,9.7-9.6-.9-.1-3.3.5-3-1Z"/>
          <path class="cls-2" d="M229.8,248.6c2.2.5,5.1.3,7-.8,1.5-.9,2.7-.8.1-2.1-5.7-2.9-.7-22.5,3.8-23.2,2.1-.3.3,8.9-.9,10.9-1.5,2.5-3.6,7.3-5.8,9.8-2.4,1.1-3.8,2.9-4.3,5.5Z"/>
        </g>
      </g>
    </g>
  </g>
</svg>