<?xml version="1.0" encoding="UTF-8"?>
<svg xmlns="http://www.w3.org/2000/svg" version="1.1" viewBox="0 0 2000 2000">
  <defs>
    <style>
      .cls-1 {
        fill: #006088;
      }

      .cls-2 {
        fill: #a8cade;
      }

      .cls-3 {
        fill: #fff;
      }

      .cls-4 {
        fill: none;
      }

      .cls-5 {
        fill: #fab900;
      }
    </style>
  </defs>
  <!-- Generator: Adobe Illustrator 28.7.1, SVG Export Plug-In . SVG Version: 1.2.0 Build 142)  -->
  <g>
    <g id="Ebene_1">
      <g>
        <g>
          <path class="cls-4" d="M1646.2,747.5H519.3c87.8,50.6,147.2,145.3,147.2,253.4h0c0,106.8-58.1,200.6-144.2,251.6h1123.8c139.2,0,252.5-113.3,252.5-252.5s-113.3-252.5-252.5-252.5Z"/>
          <path class="cls-5" d="M624.5,1000.9c0-137.9-112.2-250.2-250.2-250.2h-22.5c-137.9,0-250.2,112.2-250.2,250.2s112.2,250.2,250.2,250.2h22.5c137.9,0,250.2-112.2,250.2-250.2Z"/>
          <g>
            <path class="cls-1" d="M1646.2,747.5H519.3c87.8,50.6,147.2,145.3,147.2,253.4h0c0,106.8-58.1,200.6-144.2,251.6h1123.8c139.2,0,252.5-113.3,252.5-252.5s-113.3-252.5-252.5-252.5Z"/>
            <path class="cls-2" d="M1646.2,705.4H353.8c-162,0-294.6,132.6-294.6,294.6h0c0,162,132.6,294.6,294.6,294.6h1292.3c162,0,294.6-132.6,294.6-294.6h0c0-162-132.6-294.6-294.6-294.6ZM1646.2,1252.5H522.3c86.1-51,144.2-144.8,144.2-251.6h0c0-108-59.5-202.8-147.2-253.4h1126.9c139.2,0,252.5,113.3,252.5,252.5s-113.3,252.5-252.5,252.5ZM101.6,1000.9c0-137.9,112.2-250.2,250.2-250.2h22.5c137.9,0,250.2,112.2,250.2,250.2s-112.2,250.2-250.2,250.2h-22.5c-137.9,0-250.2-112.2-250.2-250.2Z"/>
          </g>
        </g>
        <path class="cls-1" d="M393.5,911.5c5.9,14.7-1.3,31.4-16,37.3-14.7,5.9-31.4-1.3-37.3-16-3.9-9.8-2-20.4,4-28.2l22.7,17.6-10.6-26.7c14.7-5.9,31.4,1.3,37.3,16Z"/>
        <g>
          <path class="cls-3" d="M846.7,1020.7h-41.3v-88.5c0-10.9-1.9-19.1-5.8-24.6-3.9-5.5-10.1-8.2-18.6-8.2s-19.9,3.9-25.1,11.6c-5.1,7.7-7.7,20.5-7.7,38.4v71.3h-41.3v-151.4h31.6l5.6,19.4h2.3c4.6-7.3,10.9-12.8,19-16.6s17.3-5.6,27.6-5.6c17.6,0,31,4.8,40.1,14.3,9.1,9.5,13.7,23.3,13.7,41.2v98.8Z"/>
          <path class="cls-3" d="M1002.1,1020.7l-8-20.6h-1.1c-7,8.8-14.1,14.8-21.5,18.2-7.4,3.4-17,5.1-28.8,5.1s-26-4.2-34.3-12.5-12.5-20.1-12.5-35.5,5.6-27.9,16.9-35.6c11.2-7.6,28.2-11.9,50.9-12.7l26.3-.8v-6.6c0-15.3-7.9-23-23.6-23s-26.3,3.7-42.7,11l-13.7-27.9c17.4-9.1,36.8-13.7,58-13.7s35.9,4.4,46.7,13.3c10.8,8.9,16.3,22.3,16.3,40.4v100.9h-28.9ZM922.8,830.3c0-5.9,1.7-10.4,5.1-13.5,3.4-3.2,8-4.7,13.7-4.7s10.6,1.7,14,5c3.4,3.3,5.1,7.8,5.1,13.3s-1.7,9.8-5.1,13.1c-3.4,3.3-8.1,4.9-14,4.9s-10.4-1.6-13.7-4.7c-3.4-3.2-5.1-7.6-5.1-13.3ZM989.9,950.5l-16,.5c-12,.4-21,2.5-26.8,6.5-5.9,4-8.8,10-8.8,18.2,0,11.7,6.7,17.5,20,17.5s17.2-2.8,23-8.3c5.7-5.5,8.6-12.8,8.6-21.9v-12.5ZM977.4,830.3c0-6.3,1.8-10.9,5.5-13.9,3.7-2.9,8.2-4.4,13.6-4.4s10.5,1.6,14,4.9c3.5,3.3,5.2,7.7,5.2,13.4s-1.8,9.9-5.3,13.1c-3.5,3.3-8.2,4.9-14,4.9s-10-1.5-13.6-4.4c-3.7-2.9-5.5-7.5-5.5-13.6Z"/>
          <path class="cls-3" d="M1229.9,1020.7h-41.3v-88.5c0-21.9-8.1-32.8-24.4-32.8s-19.9,3.9-25.1,11.8c-5.1,7.9-7.7,20.6-7.7,38.2v71.3h-41.3v-210.8h41.3v42.9c0,3.3-.3,11.2-.9,23.6l-1,12.2h2.2c9.2-14.8,23.8-22.2,43.9-22.2s31.3,4.8,40.5,14.4c9.2,9.6,13.8,23.3,13.8,41.2v98.8Z"/>
          <path class="cls-3" d="M1373.3,866.4c17.9,0,31.9,7,42,20.9,10.1,14,15.2,33.1,15.2,57.4s-5.2,44.4-15.6,58.1c-10.4,13.7-24.6,20.6-42.6,20.6s-31.7-6.5-41.9-19.4h-2.8l-6.9,16.7h-31.6v-210.8h41.3v49c0,6.2-.5,16.2-1.6,29.9h1.6c9.7-15,24-22.5,42.9-22.5ZM1360.1,899.4c-10.2,0-17.7,3.1-22.4,9.4-4.7,6.3-7.1,16.6-7.3,31.1v4.5c0,16.3,2.4,27.9,7.2,34.9,4.8,7,12.5,10.6,23,10.6s15.2-3.9,20.3-11.7c5-7.8,7.5-19.2,7.5-34.1s-2.5-26.1-7.6-33.5c-5.1-7.4-12-11.2-20.7-11.2Z"/>
          <path class="cls-3" d="M1577.5,1020.7l-8-20.6h-1.1c-7,8.8-14.1,14.8-21.5,18.2-7.4,3.4-17,5.1-28.8,5.1s-26-4.2-34.3-12.5c-8.4-8.3-12.5-20.1-12.5-35.5s5.6-27.9,16.9-35.6c11.2-7.6,28.2-11.9,50.9-12.7l26.3-.8v-6.6c0-15.3-7.9-23-23.6-23s-26.3,3.7-42.7,11l-13.7-27.9c17.4-9.1,36.7-13.7,58-13.7s35.9,4.4,46.7,13.3c10.8,8.9,16.3,22.3,16.3,40.4v100.9h-28.9ZM1565.3,950.5l-16,.5c-12,.4-21,2.5-26.8,6.5-5.9,4-8.8,10-8.8,18.2,0,11.7,6.7,17.5,20,17.5s17.2-2.8,23-8.3c5.7-5.5,8.6-12.8,8.6-21.9v-12.5Z"/>
          <path class="cls-3" d="M1750,866.4c5.6,0,10.2.4,14,1.2l-3.1,38.7c-3.3-.9-7.4-1.4-12.2-1.4-13.2,0-23.5,3.4-30.8,10.2-7.4,6.8-11,16.3-11,28.4v77.1h-41.3v-151.4h31.3l6.1,25.5h2c4.7-8.5,11-15.3,19-20.5s16.7-7.8,26.1-7.8Z"/>
        </g>
        <g>
          <path class="cls-3" d="M754,1169.6c0,7.9-3,14.1-8.9,18.4-5.9,4.3-14.2,6.5-24.9,6.5s-20.1-1.8-26.5-5.4v-12c4.1,2.1,8.5,3.7,13.2,4.9,4.7,1.2,9.2,1.8,13.6,1.8,6.7,0,11.9-1.1,15.6-3.2,3.6-2.2,5.4-5.4,5.4-9.8s-1.4-6.2-4.3-8.5c-2.9-2.4-8.5-5.2-16.8-8.4-7.9-3-13.6-5.5-16.9-7.7-3.3-2.2-5.8-4.7-7.5-7.5-1.6-2.8-2.5-6.2-2.5-10,0-7,2.8-12.4,8.5-16.5,5.7-4,13.4-6,23.3-6s18.2,1.9,26.9,5.6l-4.6,10.5c-8.6-3.5-16.3-5.3-23.3-5.3s-10.7,1-13.9,2.9c-3.1,1.9-4.7,4.6-4.7,7.9s.6,4.2,1.8,5.8c1.2,1.6,3,3.1,5.6,4.6,2.6,1.5,7.6,3.6,14.9,6.3,10.1,3.7,17,7.4,20.5,11.1,3.6,3.7,5.3,8.4,5.3,14.1Z"/>
          <path class="cls-3" d="M825,1194.5c-12.3,0-21.9-3.8-28.7-11.4-6.8-7.6-10.2-18.4-10.2-32.3s3.4-25.3,10.3-33.1c6.9-7.8,16.7-11.7,29.4-11.7s8.2.4,12.3,1.3c4.1.9,7.3,1.9,9.7,3.1l-4,11c-2.9-1.1-6-2.1-9.3-2.8-3.4-.7-6.4-1.1-9-1.1-17.3,0-26,11.1-26,33.2s2.1,18.5,6.3,24.1c4.2,5.6,10.5,8.4,18.8,8.4s14.4-1.5,21.9-4.6v11.4c-5.7,3-12.9,4.4-21.6,4.4Z"/>
          <path class="cls-3" d="M941.1,1192.9v-55.2c0-7-1.6-12.1-4.7-15.6-3.2-3.4-8.1-5.1-14.9-5.1s-15.5,2.4-19.7,7.3c-4.1,4.9-6.2,12.9-6.2,24v44.6h-12.9v-121.1h12.9v36.7c0,4.4-.2,8.1-.6,11h.8c2.5-4.1,6.2-7.3,10.9-9.7,4.7-2.4,10.1-3.5,16.1-3.5,10.4,0,18.3,2.5,23.5,7.4,5.2,5,7.8,12.8,7.8,23.6v55.7h-12.9Z"/>
          <path class="cls-3" d="M1054.9,1192.9v-55.2c0-7-1.6-12.1-4.8-15.6s-8.1-5.1-14.9-5.1-15.5,2.4-19.6,7.2c-4.2,4.8-6.2,12.8-6.2,23.9v44.8h-12.9v-85.3h10.5l2.1,11.7h.6c2.6-4.2,6.4-7.5,11.1-9.8,4.8-2.3,10.1-3.5,15.9-3.5,10.3,0,18,2.5,23.2,7.4,5.2,5,7.8,12.9,7.8,23.8v55.7h-12.9Z"/>
          <path class="cls-3" d="M1146.4,1194.5c-12.6,0-22.6-3.8-29.9-11.5-7.3-7.7-10.9-18.3-10.9-32s3.4-24.7,10.2-32.8c6.8-8.1,15.9-12.1,27.3-12.1s19.1,3.5,25.4,10.5c6.2,7,9.3,16.3,9.3,27.8v8.2h-58.8c.3,10,2.8,17.6,7.6,22.8,4.8,5.2,11.6,7.8,20.3,7.8s18.3-1.9,27.2-5.8v11.5c-4.6,2-8.9,3.4-13,4.2-4.1.9-9,1.3-14.8,1.3ZM1142.9,1116.9c-6.8,0-12.3,2.2-16.4,6.7-4.1,4.5-6.5,10.6-7.2,18.5h44.6c0-8.1-1.8-14.4-5.4-18.7-3.6-4.3-8.8-6.5-15.6-6.5Z"/>
          <path class="cls-3" d="M1214.6,1084.5c0-3,.7-5.1,2.2-6.5s3.3-2.1,5.5-2.1,3.9.7,5.4,2.1c1.5,1.4,2.3,3.6,2.3,6.5s-.8,5.1-2.3,6.5c-1.5,1.4-3.3,2.1-5.4,2.1s-4-.7-5.5-2.1c-1.5-1.4-2.2-3.6-2.2-6.5ZM1228.6,1192.9h-12.9v-85.3h12.9v85.3Z"/>
          <path class="cls-3" d="M1330,1181.5h-.7c-6,8.7-14.9,13-26.8,13s-19.8-3.8-26-11.4c-6.2-7.6-9.3-18.5-9.3-32.5s3.1-25,9.3-32.8c6.2-7.8,14.9-11.7,26-11.7s20.4,4.2,26.6,12.6h1l-.5-6.2-.3-6v-34.7h12.9v121.1h-10.5l-1.7-11.4ZM1304.2,1183.7c8.8,0,15.2-2.4,19.2-7.2,4-4.8,6-12.5,6-23.2v-2.7c0-12.1-2-20.7-6-25.9-4-5.2-10.4-7.7-19.3-7.7s-13.4,2.9-17.4,8.8c-4,5.9-6,14.2-6,24.9s2,19.1,6,24.7c4,5.6,9.9,8.3,17.6,8.3Z"/>
          <path class="cls-3" d="M1421.6,1194.5c-12.6,0-22.6-3.8-29.9-11.5-7.3-7.7-10.9-18.3-10.9-32s3.4-24.7,10.2-32.8c6.8-8.1,15.9-12.1,27.3-12.1s19.1,3.5,25.4,10.5c6.2,7,9.3,16.3,9.3,27.8v8.2h-58.8c.3,10,2.8,17.6,7.6,22.8,4.8,5.2,11.6,7.8,20.3,7.8s18.3-1.9,27.2-5.8v11.5c-4.6,2-8.9,3.4-13,4.2-4.1.9-9,1.3-14.8,1.3ZM1418.1,1116.9c-6.8,0-12.3,2.2-16.4,6.7-4.1,4.5-6.5,10.6-7.2,18.5h44.6c0-8.1-1.8-14.4-5.4-18.7-3.6-4.3-8.8-6.5-15.6-6.5Z"/>
          <path class="cls-3" d="M1529.9,1106.1c3.8,0,7.2.3,10.2.9l-1.8,12c-3.5-.8-6.6-1.2-9.3-1.2-6.9,0-12.8,2.8-17.7,8.4s-7.4,12.6-7.4,20.9v45.8h-12.9v-85.3h10.7l1.5,15.8h.6c3.2-5.6,7-9.8,11.4-12.8,4.5-3,9.4-4.5,14.7-4.5Z"/>
          <path class="cls-3" d="M1608,1194.5c-12.6,0-22.6-3.8-29.9-11.5-7.3-7.7-10.9-18.3-10.9-32s3.4-24.7,10.2-32.8c6.8-8.1,15.9-12.1,27.3-12.1s19.1,3.5,25.4,10.5,9.3,16.3,9.3,27.8v8.2h-58.8c.3,10,2.8,17.6,7.6,22.8,4.8,5.2,11.6,7.8,20.3,7.8s18.3-1.9,27.2-5.8v11.5c-4.6,2-8.9,3.4-13,4.2-4.1.9-9,1.3-14.8,1.3ZM1604.5,1116.9c-6.8,0-12.3,2.2-16.4,6.7-4.1,4.5-6.5,10.6-7.2,18.5h44.6c0-8.1-1.8-14.4-5.4-18.7-3.6-4.3-8.8-6.5-15.6-6.5Z"/>
          <path class="cls-3" d="M1676.2,1084.5c0-3,.7-5.1,2.2-6.5s3.3-2.1,5.4-2.1,3.9.7,5.4,2.1c1.5,1.4,2.3,3.6,2.3,6.5s-.8,5.1-2.3,6.5c-1.5,1.4-3.3,2.1-5.4,2.1s-4-.7-5.4-2.1c-1.5-1.4-2.2-3.6-2.2-6.5ZM1690.2,1192.9h-12.9v-85.3h12.9v85.3Z"/>
        </g>
        <path class="cls-1" d="M480.7,1000.9h-137.5l8.7-12.3c4.9,1.1,9.9,1.7,14.9,1.7,8.5,0,17.1-1.6,25.2-4.9,34.9-13.9,52-53.6,38.1-88.5-6.7-16.9-19.6-30.2-36.3-37.4-16.7-7.2-35.2-7.4-52.1-.7-34.9,13.9-52,53.6-38.1,88.5,6,15.2,17.1,27.4,31.4,34.9l-41.9,59.1h-40.8l32.7-46.8h-65.7v17.5h32l-32.7,46.8h154l-32.1,59.2h68.7v-17.5h-39.2l32.1-59.2h-87.5l16.3-22.9h143.4c-10.3,27.5-18.5,50-22.1,59.9-19.9,29.4-31.8,78.6-22.3,81.9,9.5,3.3,30.9-42.5,33.7-77.9,10.8-31.9,68.8-195.9,78.2-236.1-11.1,23.3-38.9,95.8-61,154.7ZM319.8,940.9c-10.3-25.9,2.4-55.4,28.3-65.7,6.1-2.4,12.4-3.6,18.6-3.6,20.1,0,39.2,12.1,47,31.9,5,12.5,4.8,26.3-.5,38.7-5.3,12.4-15.2,22-27.7,27-25.9,10.3-55.4-2.4-65.7-28.3ZM449.4,1120.1c-6.5,18.7-13.9,33.1-16.5,32.2-2.6-.9.7-16.8,7.2-35.5,6.5-18.7,13.9-33.1,16.5-32.2,2.6.9-.7,16.8-7.2,35.5Z"/>
      </g>
    </g>
  </g>
</svg>