<?xml version="1.0" encoding="UTF-8"?>
<svg xmlns="http://www.w3.org/2000/svg" version="1.1" viewBox="0 0 500 500">
  <defs>
    <style>
      .cls-1 {
        fill: #f6c743;
      }

      .cls-2 {
        fill: #492539;
      }
    </style>
  </defs>
  <!-- Generator: Adobe Illustrator 28.7.1, SVG Export Plug-In . SVG Version: 1.2.0 Build 142)  -->
  <g>
    <g id="Ebene_1">
      <path class="cls-1" d="M318.7,93.4h-137.2l-7.8,203.9c.3,5,.7,9.4,1.4,12.7,1.6-23.4,3.4-41.9,4.2-46.5,0-.4.4-.3.4.1-.2,6.4-.5,30.6.4,39.7.9-13.2,3.1-32,4.1-36.8,0-.4.4-.3.4.1-.1,6.6-.4,32.9,1.1,48.7.5-15.2,2.6-36.7,3.7-43,0-.4.4-.3.4.1-.4,9.3-1.1,42.4,1.1,58.6.2-18,1.9-43,2.8-50.7,0-.4.4-.4.4,0,0,8.4,0,34.9,1.2,41.4.2-7.6.9-32.7,1.2-40.5,0-.4.4-.5.4,0,.5,7.1,1.7,29.7,2.2,36.3.8-9.2,1-32.8,1.1-39.7,0-.4.4-.5.4,0,.8,6,2.4,26.5,2.8,35.5.9-12.4,1-40.2,1-47.3,0-.4.3-.5.4,0,1.1,6.2,4,29.9,4.9,37.4.8-7.7,1-30,1-35.9,0-.4.3-.5.4-.1,1.1,6.2,4.2,30.7,4.5,37.7.7-3.2,1.5-31.1,1.7-38.6,0-.4.4-.5.4,0,.8,6.2,2.8,28.7,3.3,37,.9-7.4.7-50.5.6-61.2,0-.4.4-.5.4,0,1.1,7.5,3.6,35.6,2.5,62.2-1.1,27.8-5.1,42.9-6.4,45.6-.1.3-.4.1-.4-.2,0-3.2-.4-18.2-2.3-26.9-.9,4.6-1.6,18-2,23.5,0,.5-.4.4-.5,0-.2-5.2-.8-17.7-2.3-20.7,0,4.1-1.1,18.7-1.6,23.6,0,.4-.4.4-.5,0-.2-5.8-.9-23.6-2.1-30.6-.4,4.6-1.6,21.5-2.3,28.3,0,.5-.5.4-.5,0,0-5.6-.4-19.5-2-27.2-.5,10.5-1.8,28.5-2.4,33.9,0,.4-.4.4-.5,0-.5-5.4-1.6-23.4-2.2-33.3-1.2,4.1-2.1,25.3-2.4,33.8,0,.5-.4.5-.5,0-.3-6.2-.8-21.2-.8-28.1-1.7,9.9-3.2,27.5-3.8,32.7,0,.4-.4.4-.5,0-.5-5.3-1.6-23.2-1.4-31.7-1.9,7.6-2.3,27.2-2.3,33.8,0,.5-.4.5-.5,0-.8-6.1-2.5-24-2.8-34.5-1.9,6-1.9,23.1-1.7,31.3,0,.5-.4.6-.5,0-.7-7.4-1.8-23.3-2.3-32.3-1.3,7.7-1.8,33.5-1.9,37.9,0,.3-.2.5-.4.3-.7-1.1-2.1-5.1-3.3-13.5l-2.1,53.9,66.1,2.1,14.4-247.3,14.4,247.3,28.4-.9c-.1-.6-.2-1.2-.2-2,0-5.6,3.7-9.2,5.1-10,.1,0,.4,0,.4,0-.6,1.3-2.9,7.7.4,10.3,1.6-3.6,3.4-6.4,4.2-7.1,0,0,.4,0,.4,0-.2,1-.5,4.7.4,6,.9-2,3.1-4.9,4.1-5.6,0,0,.4,0,.4,0-.1,1-.4,5,1.1,7.4.5-2.3,2.6-5.6,3.7-6.6,0,0,.4,0,.4,0-.3,1.1-.8,4.2,0,6.7h1.6c.6-2.3,1.8-4.6,2.4-5.5,0,0,.4,0,.4,0,0,1,0,3.7.6,5.3h.8c.3-1.6.8-4.2,1-5.2,0,0,.4,0,.4,0,.5,1,1.5,3.7,2,5.1h.4c.7-1.6.8-4.6.8-5.6,0,0,.4,0,.4,0,.8.9,2.4,4,2.8,5.4.9-1.9,1-6.1,1-7.2,0,0,.3,0,.4,0,.5.4,1.3,1.4,2.2,2.4l-11.7-305.7ZM233.4,190.1c-4,.2-7-3.5-7-3.5,0,0-1.6,7.4,2.3,9,0,0-22.1-4.4-22.6-16.7-3.1,2.2-2.9,5.8-2.9,5.8,0,0-3.2-3-2.6-7.1-4.5,3.2,1.6,21.7,1.6,21.7,0,0-11.7-1.5-15.1-12.4-3.4-11-3.6-17.8-3.1-24,2.5,9.6,3.6,12.1,6,11.2s.6-11.1-.2-15.2c3.9,3.5,4.5,7.6,4.5,7.6,0,0-1-16.9.2-21.1,1.2-4.1,13.2-13.5,13.2-13.5,0,0-6.5,9.6-7.7,14.6-1.2,5,.6,15.5,2.9,16.2,2.2.7,10.3,1.3,10.6-5.7,2.2,2.8.7,8.5.7,8.5,0,0,5-2.6,4.7-5,2.9,3.4,1.5,4.2,2,5.8.5,1.6,6.1,6,9.3,6.7,3.2.7,1.9,6.9,3.7,9.1s6.2,6.5,6.2,6.5c0,0-2.7,1.2-6.7,1.5ZM313.5,187.6c-3.8,12.7-17.2,14.4-17.2,14.4,0,0,6.9-21.5,1.8-25.1.7,4.7-3,8.2-3,8.2,0,0,.3-4.2-3.2-6.8-.6,14.3-25.6,19.3-25.6,19.3,4.4-1.8,2.6-10.4,2.6-10.4,0,0-3.5,4.4-8,4.1s-7.6-1.7-7.6-1.7c0,0,4.9-4.9,7-7.5s.6-9.7,4.2-10.6c3.7-.8,10-5.9,10.6-7.8s-1-2.8,2.3-6.7c-.3,2.8,5.4,5.8,5.4,5.8,0,0-1.7-6.6.8-9.9.4,8.2,9.5,7.5,12.1,6.6,2.5-.8,4.7-13,3.2-18.8-1.4-5.8-8.8-16.9-8.8-16.9,0,0,13.6,10.9,15,15.7,1.4,4.8.3,24.4.3,24.4,0,0,.7-4.7,5.1-8.8-1,4.8-3,16.7-.3,17.6,2.7,1,4-1.8,6.8-13,.6,7.2.3,15.1-3.5,27.8Z"/>
      <polygon class="cls-2" points="320.2 100.8 265.5 100.8 265.5 98.1 235.1 98.1 235.1 100.8 180.4 100.8 180.4 115.5 235.1 115.5 235.1 118.2 265.5 118.2 265.5 115.5 320.2 115.5 320.2 100.8"/>
      <rect class="cls-1" x="189.8" y="98.1" width="5.8" height="20"/>
      <rect class="cls-1" x="220.6" y="98.1" width="5.8" height="20"/>
      <rect class="cls-1" x="274.1" y="98.1" width="5.8" height="20"/>
      <rect class="cls-1" x="304.9" y="98.1" width="5.8" height="20"/>
    </g>
  </g>
</svg>