<?xml version="1.0" encoding="UTF-8"?>
<svg xmlns="http://www.w3.org/2000/svg" version="1.1" viewBox="0 0 500 500">
  <defs>
    <style>
      .cls-1 {
        fill: #492539;
      }

      .cls-2 {
        fill: #dd3449;
      }
    </style>
  </defs>
  <!-- Generator: Adobe Illustrator 28.7.1, SVG Export Plug-In . SVG Version: 1.2.0 Build 142)  -->
  <g>
    <g id="Ebene_1">
      <g>
        <path class="cls-2" d="M289.9,141.3c-3.1-13.9-5-25.3-5-25.3-10.5-1-20.2-3.8-30.1-7-.3-.1-.4-.2-.8-.3-13.4-4.9-27-10.1-38.8-18.2,1.2,9.7,1.3,19.8-1.2,29.2-5.4,20.2-10.6,40-8.7,60.5,1.9,21.9,5.4,46.2,2,68.3-5,32.6-12.9,65.2-12.5,98.8.3,21.9,2.3,44.5,12,64.7,10.1-3.7,20.3-7.4,30.4-11.1-27.7-36.6-28.8-80.1-14.1-121.1,9.5-26.6,29.8-50.2,41.3-76.8-7.5,24.5-12,51.9-21.1,74.8-15.1,38.2-8.4,82.3,19.8,113.7,10.1-3.7,20.3-7.4,30.4-11.1-4.6-17.9-4.4-36.6-5.7-54.7-2-26.6-2.5-53.7,2.2-79.1,3.2-17.5,7.7-35.5,6.5-54.3-1.1-17.1-2.7-34.2-6.4-50.9Z"/>
        <path class="cls-1" d="M288,132.5s4.3.9-23.5-5.8c-16.5-4-33.4-8.8-48.8-16.7.1-3.3.2-4.9.3-8.2,13.7,8,29.4,13.1,44.6,17.1,26.3,6.9,25.9,6.5,25.9,6.5.6,2.9.9,4.3,1.5,7.2Z"/>
      </g>
    </g>
  </g>
</svg>