<?xml version="1.0" encoding="UTF-8"?>
<svg xmlns="http://www.w3.org/2000/svg" version="1.1" viewBox="0 0 500 500">
  <defs>
    <style>
      .cls-1 {
        fill: #f6c743;
      }

      .cls-2 {
        fill: #492539;
      }
    </style>
  </defs>
  <!-- Generator: Adobe Illustrator 28.7.1, SVG Export Plug-In . SVG Version: 1.2.0 Build 142)  -->
  <g>
    <g id="Ebene_1">
      <g>
        <path class="cls-1" d="M326.1,96.5c-24.9-4.9-49.1-12.5-74.6-7.8-25.5,4.7-51.3-2.6-76.1,5.4,42.1,128.8,52.7,228.3-5.6,242.3,9.1,38.4,21,31.4,40.7,58.6,35.4-26.4,68.8-188.1,53.2-244.7,46.8,124.2,19.6,111.4,11.6,232.7,26.7,1.8,34.7,19.4,58.6,18.8,5.4-106.7-21.4-195.8-7.9-305.4Z"/>
        <path class="cls-2" d="M326.6,103.2c-18.9-3.3-37.3-9-56.5-9.9,0-.9,0-1.7,0-2.6-12.2.7-23.6,3.8-35.4,6.5,0,.9.1,1.9.2,2.8-19.7.5-38.5-4.3-57.6,2.2,2.8,7.7,8.9,13.4,15.3,18.2,13.5-5.3,29.3-5.6,43.7-6.2.2.6.5,1.1.8,1.7,10.3-1.8,20.4-4,30.9-4.1.2-1,.4-2,.5-3,17.7,1.3,34.9,5.2,52.6,6.7,2.4-4,4.6-7.8,5.6-12.4Z"/>
        <path class="cls-1" d="M186.8,95.9c2.3-.5,4.6-.6,6.9-.8,4.1,8.7,9.6,16.5,15.4,24.1-1.6.3-2.9,1-4.5,1.4-7-7.6-14-15.1-17.9-24.8Z"/>
        <path class="cls-1" d="M220.3,97.3c1.9.2,3.7.4,5.6.4,1,6.3,1.9,12.7,4,18.8-1.4,0-2.7,0-4.1,0-2.4-6.2-3.9-12.7-5.5-19.2Z"/>
        <path class="cls-1" d="M280.4,91c2.3.3,4.6.7,6.8,1.1-.6,7.4-2.8,14.3-5,21.3-2-.3-3.9-.6-5.9-.9,2.1-7.1,3.6-14.1,4.1-21.5Z"/>
        <path class="cls-1" d="M313.2,98.2c1.7.3,3.5.7,5.2,1-1.3,6.7-3.9,12.4-7.6,18.1-1.7,0-3.4-.1-5.2-.3,4.2-5.8,6.9-11.7,7.6-18.9Z"/>
      </g>
    </g>
  </g>
</svg>