<?xml version="1.0" encoding="UTF-8"?>
<svg xmlns="http://www.w3.org/2000/svg" version="1.1" viewBox="0 0 500 500">
  <defs>
    <style>
      .cls-1 {
        fill: #492539;
      }

      .cls-2 {
        fill: #dd3449;
      }
    </style>
  </defs>
  <!-- Generator: Adobe Illustrator 28.7.1, SVG Export Plug-In . SVG Version: 1.2.0 Build 142)  -->
  <g>
    <g id="Ebene_1">
      <path class="cls-2" d="M297.7,66.5c-3.2-6.3-1.3-11.8-1.3-11.8,0,0-23.7,2.4-45.8,2.4h-1c-22.1,0-45.8-2.4-45.8-2.4,0,0,1.8,5.5-1.3,11.8-3.2,6.3-6.8,45.6-3.7,56.3,3.2,10.7,9.3,167.4,9.8,176.8s0,69.4.8,100.3c.8,30.9,5.7,67.3,5.7,67.3h24.5s1.8-120.3.8-132.3c-.9-10.1,7-180.5,9.6-203.9,2.6,23.4,10.5,193.8,9.6,203.9-1,12.1.8,132.3.8,132.3h24.5s5-36.5,5.7-67.3c.8-30.9.3-90.9.8-100.3.5-9.4,6.7-166.1,9.8-176.8,3.2-10.7-.5-50-3.7-56.3Z"/>
      <path class="cls-1" d="M296.2,62.4s-18.7,2.4-46.7,2.4c-27.3,0-45.6-2.4-45.6-2.4l.4-3.3s17.9,2.4,45.3,2.4c27.9,0,46.3-2.4,46.3-2.4l.4,3.3Z"/>
    </g>
  </g>
</svg>