<?xml version="1.0" encoding="UTF-8"?>
<svg xmlns="http://www.w3.org/2000/svg" version="1.1" viewBox="0 0 500 500">
  <defs>
    <style>
      .cls-1 {
        fill: #492539;
      }

      .cls-2 {
        fill: #dd3449;
      }
    </style>
  </defs>
  <!-- Generator: Adobe Illustrator 28.7.1, SVG Export Plug-In . SVG Version: 1.2.0 Build 142)  -->
  <g>
    <g id="Ebene_1">
      <path class="cls-2" d="M297.3,130.5c-3.1-14.5-1.3-27.2-1.3-27.2,0,0-23.5,5.6-45.4,5.6h-1c-21.9,0-45.4-5.6-45.4-5.6,0,0,1.8,12.7-1.3,27.2-3.1,14.5-6.8,33.8-3.7,55.7,3.1,21.9,8.9,53,9.4,61.3s0,61.6.8,88.9c.8,27.4,5.7,59.7,5.7,59.7h24.5s1.8-106.7.8-117.4c-.9-9,7.1-27.9,9.6-75.8,2.6,47.9,10.5,66.8,9.6,75.8-1,10.7.8,117.4.8,117.4h24.5s5-32.3,5.7-59.7c.8-27.4.3-80.6.8-88.9.5-8.3,6.3-39.4,9.4-61.3,3.1-21.9-.5-41.2-3.7-55.7Z"/>
      <path class="cls-1" d="M295.9,121.2s-18.6,5.6-46.3,5.6c-27.1,0-45.3-5.6-45.3-5.6l.4-7.7s17.8,5.4,44.9,5.5c27.7,0,45.9-5.5,45.9-5.5l.4,7.7Z"/>
    </g>
  </g>
</svg>