<?xml version="1.0" encoding="UTF-8"?>
<svg xmlns="http://www.w3.org/2000/svg" version="1.1" viewBox="0 0 500 500">
  <defs>
    <style>
      .cls-1 {
        fill: #0fa0b3;
      }

      .cls-2 {
        fill: #14bcc9;
      }

      .cls-3 {
        fill: #f6c743;
      }
    </style>
  </defs>
  <!-- Generator: Adobe Illustrator 28.7.1, SVG Export Plug-In . SVG Version: 1.2.0 Build 142)  -->
  <g>
    <g id="Ebene_1">
      <g>
        <path class="cls-2" d="M270,136.8c-7.5,13.9-3.7,21.1-4.5,37-.7,15.9-25.2,1.9-34-3.7-8.8-5.7-19.8-9.2-27.4-17.1,3.4,51.6,14.8,48.9,51.2,79,76.1-17.8,15.7-50.4,14.6-95.1Z"/>
        <path class="cls-1" d="M270,137c-7.1,12-4.4,22.3-4.6,35.7,17,19.6,23.4,25.2-7.1,29.6-21.6-4.9-31.9-8.6-26.4-32.7-10.6-3.9-19.3-9.4-28-16.6-29.3-6.3-37-27.6-59.7-42.8-12.5,19.8-15.1,43.4-24,64.8,17.3,9.3,31.1,25.5,50,31.5,31.8,184.4,53.1-.8-23,195.9,43.3,25.6,91.5-27.7,111.9-48.9,20.4-21.1.3-2.8,15.4,7.7,15.1,10.5,12.8,44.8,45.3,39.9,3-10,3.1-209.9,1.5-215.5,16.6-5.1,30.2-16.5,47.2-21-8.1-20.9-16.2-42-25.8-62.3-21.6,7.3-53.5,22.4-72.9,34.6Z"/>
        <path class="cls-3" d="M272.5,241c-13.5,5.7-21.3,6-25,19.5-4.1-17.1-2.6-24.9-18.3-38.1-8.7-7.2-25.8-1.4-11.4,11.9,19.6,18,24.6,34,41.8,50.2,5.8-12.2,14.8-18.5,22.4-30.2,5.6-8.6-2.1-16.3-9.5-13.2Z"/>
      </g>
    </g>
  </g>
</svg>