<?xml version="1.0" encoding="UTF-8"?>
<svg xmlns="http://www.w3.org/2000/svg" version="1.1" viewBox="0 0 500 500">
  <defs>
    <style>
      .cls-1 {
        fill: #0fa0b3;
      }

      .cls-2 {
        fill: #14bcc9;
      }

      .cls-3 {
        fill: #f6c743;
      }
    </style>
  </defs>
  <!-- Generator: Adobe Illustrator 28.7.1, SVG Export Plug-In . SVG Version: 1.2.0 Build 142)  -->
  <g>
    <g id="Ebene_1">
      <polygon class="cls-2" points="330.6 139.8 288.6 129.2 211.5 129.2 169.6 139.8 252.1 192.4 330.6 139.8"/>
      <path class="cls-1" d="M330.6,139.8l-41.9-10.6s-.8,25.9-38.5,26.6c-37.7-.8-38.5-26.6-38.5-26.6l-41.9,10.6-61.8,44.8,28.4,48.4,33.9-30.5v167.7h160.1v-167.7l33.9,30.5,28.4-48.4-61.8-44.8Z"/>
      <path class="cls-3" d="M271.7,204.6c-21.6,0-21.6,18.4-21.6,18.4,0,0,0-18.4-21.6-18.4s-22,13.3-17.1,27.2c6.7,18.8,38.7,38.7,38.7,38.7,0,0,32-19.8,38.7-38.7,4.9-13.9-5.3-27.2-17.1-27.2Z"/>
    </g>
  </g>
</svg>