<?xml version="1.0" encoding="UTF-8"?>
<svg xmlns="http://www.w3.org/2000/svg" version="1.1" viewBox="0 0 500 500">
  <defs>
    <style>
      .cls-1 {
        fill: #f5d663;
      }

      .cls-2 {
        fill: #0fa0b3;
      }
    </style>
  </defs>
  <!-- Generator: Adobe Illustrator 28.7.1, SVG Export Plug-In . SVG Version: 1.2.0 Build 142)  -->
  <g>
    <g id="Ebene_1">
      <g>
        <path class="cls-2" d="M361.4,216.8c-21.5-12.1-44.3-19.8-67.4-29.2-3,16.5-14,47.3-29.2,51.4-98.3-26.5-28.3-117.6-41.8-124.4-10.4,7.2-21.6,15.6-32.8,22.7-10.7-1.2-53.6,235.1-53.6,254.2,25.8-29.9,39.1-49,61.4-52.8,55.2-20.3,110.5-10.8,193.1,29.3-80-58.4,29.3-121.2-29.7-151.1Z"/>
        <path class="cls-1" d="M332.3,202.6c-51.7,58.5-75.5-18.6-131.2-71.7-3.8,1.9-7.4,4.1-11,6.5,98.4,51.9,74.8,111.8,171.2,79.4-9.2-5.8-18.8-10.4-29-14.2Z"/>
        <path class="cls-1" d="M311.7,242.8c11.6,10.2-17.3,31.2-25.5,39.5,6.8-5.8,14.5-10.5,21.8-15.6,1.8,0,3.6.2,5.4.3,14.4-10.6,42.1-20.3,12.1-31,8.2-2.2,25.1,5.2,20.7,13.2s9.3-4.7,10.1-.8c1.4,0,1.9,1.3,2.9,2,9.2-10.8-8.1-17-16.2-19.8,4.2-4.8,15,2.7,17.4-5.1,3.5-11.1-41.3-26.7-50.2-15.9-5.2,6.3,4.1,8.3,5.9,13.1-3.4,2.2-7,4.9-9.8,7.9-2.8,3-5.2,5.5-8.4,8.4-3,0-12,1.3-13.5,2.2-7.9,4.5-23.6,16.6,9.9,8.6,10.7-2.5,9.7-2.3,17.3-7Z"/>
      </g>
    </g>
  </g>
</svg>