<?xml version="1.0" encoding="UTF-8"?>
<svg xmlns="http://www.w3.org/2000/svg" version="1.1" viewBox="0 0 500 500">
  <defs>
    <style>
      .cls-1 {
        fill: #f5d663;
      }

      .cls-2 {
        fill: #0fa0b3;
      }
    </style>
  </defs>
  <!-- Generator: Adobe Illustrator 28.7.1, SVG Export Plug-In . SVG Version: 1.2.0 Build 142)  -->
  <g>
    <g id="Ebene_1">
      <path class="cls-2" d="M312.2,174.1v-43.7h-124.3v43.7c-53.2,53.2-67.1,112.8-67.1,194.9h258.5c0-82.1-13.9-141.6-67.1-194.9Z"/>
      <rect class="cls-1" x="187.9" y="159.9" width="124.3" height="14.3"/>
      <path class="cls-1" d="M271,178l-7.7,87.1,7.7-10.4,5.4,5.8,3.6-83.8s3.6,66.2,3.8,65,4.6-9.8,4.6-9.8l4,8.8-3.6-60.8s5.9,3,12.6,3c9.6,0,8.2-35.5-4.2-32.5-7.2,1.7-9,9.4-9,9.4,0,0-3.3-1.7-8.1-1.7s-8.6,1.9-8.6,1.9c0,0-3-8.3-6.3-9.3-17.1-5.5-21.4,32.5-5.4,35.5,5.1,1,11.1-8.1,11.1-8.1Z"/>
    </g>
  </g>
</svg>