<?xml version="1.0" encoding="UTF-8"?>
<svg xmlns="http://www.w3.org/2000/svg" version="1.1" viewBox="0 0 500 500">
  <defs>
    <style>
      .cls-1 {
        fill: #87426b;
      }

      .cls-2 {
        fill: #f5d663;
      }

      .cls-3 {
        fill: #492539;
      }

      .cls-4 {
        fill: #dd3449;
      }

      .cls-5 {
        fill: #d8b955;
      }
    </style>
  </defs>
  <!-- Generator: Adobe Illustrator 28.7.1, SVG Export Plug-In . SVG Version: 1.2.0 Build 142)  -->
  <g>
    <g id="Ebene_1">
      <g>
        <path class="cls-2" d="M407.5,239.3c-6.5-10.1-14.8-18.4-22.6-27.5,2.6-2.3,5.1-4.6,7.7-6.9,7.8,9.1,15.5,18.3,23.1,27.5-2.8,2.3-5.5,4.6-8.2,6.9Z"/>
        <path class="cls-2" d="M210.8,348.3c21.9,13.8,33.9,20.8,57.4,6.3-4,14.2-5.2,29.7-3.3,44.4-18.5.6-36.6-1.4-54.9-4,1.4-15.5,1.5-31.2.8-46.7Z"/>
        <path class="cls-2" d="M215.4,147.1c19.2.8,31.4-2,49.4-8,8.7,32.8,26.5,56.4,33.5,92.9-21.9,11.5-37.9,10.1-60.7,14.4,22.5,19.3-16.9-84.9-22.2-99.3Z"/>
        <path class="cls-2" d="M87.5,279.8c7.8,6.9,15.6,13.7,23.4,20.6-2.7,3.9-5.4,7.8-8.1,11.6-7.8-6.9-15.6-13.7-23.4-20.6,2.7-3.9,5.4-7.8,8.1-11.6Z"/>
        <path class="cls-4" d="M255.9,174.4c.5-1.8,1-3.6,1.7-5.3-4.2-1.1-7.4-2.2-10.9-4.8-1.5,2.6-3.4,4.7-5.2,7.1,1.9,1.7,3.6,3.5,5.7,4.9,4.1,14.7,14.8,51.1,10.4,64.2,4,2.6,6.2,5.8,8.1,10.3,0,0,0,.1,0,.2,0,0,0,0,0,0s0,0,0,0c0,0,0-.1,0-.2,6.2-8.9,10-12.8,14.1-23.7-4.2-19-14.2-36.2-24-52.7Z"/>
        <path class="cls-3" d="M386.3,205.5c-92.2,123.9,37.4-70.1-63.4-100.5-100.8-30.4,9.5,35.4-47.5,32.4,5.3,8.4-4.8,11.3-7.5,15.4-.6,29.3,11.4,60.3-.3,88.6,0,0,0,0,0,0-4.9-19.8-32.9-64.5-46.5-81-4.4.2-9.9,3.5-13.7.3-25.3,10.5-17.7-27.2-40.2,17.1-22.5,44.3-43.7,56.4-85.4,107.9,7.6,10.6,17.2,15.8,25.6,24.3,25.7-29.7,97.6-55.4,99.3-57.4-7,15.3-46.1,25.1-58.9,137.5,30,13.9,85.9,24.6,91.5-22.8-3.3,55.2,61,38.6,90.1,23.1-15.7-67.6,16.5-132.7-7.5-214,21.4,61.4,6,161.7,93.9,61.2-11.2-10.8-12.5-18.5-29.5-32Z"/>
        <path class="cls-1" d="M246.6,358.6c-1.3,4.6-7.4-3.5-9.2-5.5-1.8-1.9-8.3-7.5-6.5-11.5,1.7-3.9,6.9-2.1,9.8,1,2.9,3.1,7.3,11.4,6,15.9Z"/>
        <path class="cls-1" d="M254.4,306.9c-.8,4.6-4,9.2-8.8,6.4-4.8-2.8-6.3-10.1-5.3-15s4.2-6.9,9-5.1c4.7,1.9,6,9,5.2,13.7Z"/>
        <path class="cls-1" d="M262.4,264.9c-.9,3.5-4.9,5.5-8.1,3.7-3.2-1.8-6-5.8-5-9.5,1-3.7,4.9-3.2,7.9-1.9,3,1.3,6,4.2,5.1,7.7Z"/>
        <path class="cls-1" d="M318.4,193.7c-10.9,4.3-18.2,13-26.9,20.5-.4-1.6-.9-3.2-1.4-4.8,7.2-7.2,15.5-21.2,26.2-22.9.7,2.4,1.4,4.9,2.1,7.3Z"/>
        <path class="cls-1" d="M331.1,324.6c-9.7-8.1-21.7-21.9-34.1-12.1.2-.9.3-1.9.6-2.8,14.8-9.5,23,.3,34.3,9.7-.2,1.7-.5,3.4-.8,5.1Z"/>
        <path class="cls-1" d="M219,156.4c15,19.1,43.6,62.4,48.6,85-10.8-13.2-24.2-19.4-35.9-36.8.7-5.3,1.9-10.3,3.3-15.5-3,1.9-6.1,3.8-9.4,5.1-7-11.1-13.9-22.2-21-33.2,5.1-.8,9.9-1.6,14.2-4.7Z"/>
        <path class="cls-1" d="M267.3,149c1.6,28.1,10.4,66.9.3,92.4,12.5-19.9,12.5-45,15.2-67.9-3.2-.4-6.4-.5-9.6-.4,3.3-2.2,6.6-4.4,9.7-6.9-.3-10.3-1.7-20.2-3-30.5-2.3,4.5-6.8,12.7-12.5,13.3Z"/>
        <path class="cls-5" d="M246.7,164.3c-2.4,5.2-6.3,9.7-9.6,14.4-5.5-7.8-11.7-15.2-18.1-22.3,6.1,6.1,11.9,12.4,17.6,18.8,3.6-3.4,7.3-6.9,10.1-11Z"/>
        <path class="cls-5" d="M246.7,164.3c5.6,4.5,12,6.1,19.1,6.3-.1-7.3.8-14.4,1.7-21.6-1.1,6.6-2.6,13.1-3.4,19.7-6.4.6-12.1-.7-17.4-4.4Z"/>
      </g>
    </g>
  </g>
</svg>