<?xml version="1.0" encoding="UTF-8"?>
<svg xmlns="http://www.w3.org/2000/svg" version="1.1" viewBox="0 0 500 500">
  <defs>
    <style>
      .cls-1 {
        fill: #87426b;
      }

      .cls-2 {
        fill: #f5d663;
      }

      .cls-3 {
        fill: #492539;
      }

      .cls-4 {
        fill: #dd3449;
      }

      .cls-5 {
        fill: #d8b955;
      }
    </style>
  </defs>
  <!-- Generator: Adobe Illustrator 28.7.1, SVG Export Plug-In . SVG Version: 1.2.0 Build 142)  -->
  <g>
    <g id="Ebene_1">
      <rect class="cls-2" x="341" y="371.2" width="30.7" height="13.9"/>
      <rect class="cls-2" x="229.2" y="354.8" width="41.9" height="52.5"/>
      <rect class="cls-2" x="219.1" y="87.3" width="61.9" height="157.3"/>
      <rect class="cls-2" x="129.3" y="371.2" width="30.7" height="13.9"/>
      <polygon class="cls-4" points="256 135.2 261 124.8 250.3 109.7 239.9 124 244.6 135.2 237.1 228.6 250.2 257.4 250.2 257.6 250.3 257.5 250.3 257.6 250.3 257.4 263.5 228.6 256 135.2"/>
      <path class="cls-3" d="M371.7,380.5s-6.6-216.7-22.6-234.4c-15.9-17.7-47.8-23.4-47.8-23.4l-20.3-15-31,134h0l-31-134-20.3,15s-31.8,5.7-47.8,23.4c-15.9,17.7-22.6,234.4-22.6,234.4h34l17.2-168-6.6,195.7c74.6,35,77-31.6,77-40.1,0,8.5,2.3,75.1,77,40.1l-6.6-195.7,17.2,168h34Z"/>
      <circle class="cls-1" cx="244.6" cy="330" r="5.7"/>
      <circle class="cls-1" cx="244.6" cy="301.5" r="5.7"/>
      <circle class="cls-1" cx="244.6" cy="273.1" r="5.7"/>
      <rect class="cls-1" x="277.9" y="219.5" width="33.8" height="5.2"/>
      <polygon class="cls-1" points="324.6 337.4 289.9 328 289.9 323.5 324.5 332.9 324.6 337.4"/>
      <polygon class="cls-1" points="219.1 100 250.1 241.7 216.8 170.8 225.2 154.6 213 160.7 196.1 123.3 219.1 100"/>
      <polygon class="cls-1" points="281 99.9 250.1 241.6 283.4 170.7 275 154.5 287.2 160.6 304.1 123.2 281 99.9"/>
      <polygon class="cls-5" points="250.3 109.7 231.2 138.9 219.1 100 231.9 132.6 250.3 109.7"/>
      <polygon class="cls-5" points="250.3 109.7 269.2 138.9 281.2 100 268.5 132.6 250.3 109.7"/>
    </g>
  </g>
</svg>