<?xml version="1.0" encoding="UTF-8"?>
<svg xmlns="http://www.w3.org/2000/svg" version="1.1" viewBox="0 0 500 500">
  <defs>
    <style>
      .cls-1 {
        fill: #87426b;
      }

      .cls-2 {
        fill: #f5d663;
      }

      .cls-3 {
        display: none;
        fill: #fff;
      }

      .cls-4 {
        fill: #492539;
      }

      .cls-5 {
        fill: #dd3449;
      }

      .cls-6 {
        fill: #d8b955;
      }
    </style>
  </defs>
  <!-- Generator: Adobe Illustrator 28.7.1, SVG Export Plug-In . SVG Version: 1.2.0 Build 142)  -->
  <g>
    <g id="Ebene_1">
      <rect class="cls-2" x="341" y="355.7" width="30.7" height="13.9"/>
      <rect class="cls-2" x="229.2" y="339.3" width="41.9" height="52.5"/>
      <path class="cls-2" d="M279.8,187.7c.5-.2.9-.6,1.2-1v-7.3c-1.2,1.1-3.2,2.7-5.7,2.6-3.8-.3-6.4-1.5-6.4-1.5,0,0,4.1-4.4,5.9-6.7,1.8-2.3.5-8.8,3.6-9.5.8-.2,1.7-.6,2.7-1.2v-91.3h-61.9v81.5c1.2-1.1,2.2-2.5,2.1-3.8,3.3,4.3,1.7,5.3,2.3,7.3.6,2,6.9,7.5,10.6,8.4s2.1,8.7,4.3,11.4,7,8.1,7,8.1c0,0-3.1,1.5-7.7,1.8s-8-4.4-8-4.4c0,0-1.8,9.3,2.6,11.3,0,0-6.7-1.5-13.2-5v40.7h61.9v-41.6c-.8.2-1.2.3-1.2.3Z"/>
      <rect class="cls-2" x="129.3" y="355.7" width="30.7" height="13.9"/>
      <path class="cls-5" d="M256,119.7l5-10.4-10.7-15-10.4,14.3,4.7,11.2-4.7,58.7c2.3,2.8,5.5,6.2,5.5,6.2,0,0-2.5,1.2-6.2,1.7l-2.1,26.8,13.1,28.9v.2s0-.1,0-.1h0c0,.1,0-.1,0-.1l13.1-28.9-7.5-93.4Z"/>
      <path class="cls-4" d="M371.7,365s-6.6-216.7-22.6-234.4c-15.9-17.7-47.8-23.4-47.8-23.4l-20.3-15-31,134h0l-9.3-40.1c-.9.2-1.9.3-3,.4-4.5.3-8-4.4-8-4.4,0,0-1.8,9.3,2.6,11.3,0,0-25.2-5.5-25.7-20.9-3.5,2.7-3.3,7.3-3.3,7.3,0,0-3.7-3.8-3-8.8-5.1,4,1.8,27.1,1.8,27.1,0,0-13.4-1.8-17.2-15.5-3.8-13.7-4.1-22.2-3.5-30,2.8,12,4.1,15.1,6.8,14,2.7-1.1.7-13.9-.3-19,4.4,4.4,5.1,9.4,5.1,9.4,0,0-1.1-21.2.3-26.3,1.4-5.2,15-16.9,15-16.9,0,0-7.4,12-8.8,18.3-1.4,6.2.7,19.3,3.3,20.3,2.6.9,11.7,1.7,12.1-7.2,2.6,3.5.9,10.7.9,10.7,0,0,5.7-3.2,5.4-6.2,3.3,4.3,1.7,5.3,2.3,7.3.6,2,6.9,7.5,10.6,8.4s2.1,8.7,4.3,11.4c0,.1.2.3.3.4l-19.6-84.7-20.3,15s-31.8,5.7-47.8,23.4-22.6,234.4-22.6,234.4h34l17.2-168-6.6,195.7c74.6,35,77-31.6,77-40.1,0,8.5,2.3,75.1,77,40.1l-6.6-195.7,17.2,168h34ZM307.2,283.8c-2.3,30.2-10.5,46.5-13.1,49.5-.3.3-.8.1-.8-.3-.1-3.5-.8-19.7-4.8-29.2-1.8,5-3.3,19.6-4.2,25.5,0,.5-.9.5-.9,0-.5-5.6-1.7-19.2-4.7-22.4.2,4.5-2.2,20.2-3.4,25.6-.1.5-.9.4-.9,0-.5-6.3-1.8-25.6-4.4-33.2-.9,5-3.4,23.3-4.8,30.7,0,.5-.9.4-.9,0-.1-6.1-.9-21.2-4.1-29.5-1.1,11.4-3.8,30.9-4.9,36.8,0,.5-.9.5-.9,0-1-5.8-3.4-25.4-4.5-36.2-2.5,4.5-4.2,27.5-4.9,36.7,0,.5-.9.5-1,0-.7-6.7-1.6-23-1.6-30.5-3.6,10.7-6.6,29.8-7.7,35.5,0,.5-.9.5-.9,0-1-5.8-3.3-25.2-3-34.4-4,8.3-4.7,29.5-4.8,36.7,0,.5-.8.6-.9,0-1.7-6.6-5.1-26-5.7-37.4-3.8,6.5-3.9,25.1-3.4,34,0,.5-.8.6-.9,0-1.5-8-3.7-25.3-4.8-35.1-2.7,8.3-3.6,36.4-3.8,41.1,0,.4-.5.5-.8.3-2.8-2.3-12-18.2-12-60.1s7.6-65.4,10.5-71c.2-.4.9-.2.8.2-1.3,9.4-6,55.1.8,73,3.3-25.4,6.9-45.5,8.6-50.4.1-.4.9-.3.9.1-.3,7-.9,33.2.8,43,1.8-14.4,6.4-34.8,8.4-39.9.2-.4.9-.3.9.1-.3,7.2-.8,35.7,2.2,52.9.9-16.4,5.4-39.8,7.5-46.6.1-.4.9-.3.9.1-.7,10.1-2.3,46,2.2,63.5.3-19.6,4-46.7,5.8-55,0-.5.9-.4.9,0,0,9.1,0,37.8,2.4,44.9.4-8.3,1.8-35.4,2.5-43.9,0-.5.8-.5.9,0,1.1,7.8,3.6,32.2,4.5,39.3,1.7-10,2.1-35.5,2.2-43.1,0-.5.8-.5.9,0,1.6,6.6,5,28.7,5.7,38.5,1.8-13.5,2-43.6,2.1-51.3,0-.4.7-.5.9-.1,2.2,6.7,8.2,32.4,10.1,40.5,1.6-8.4,2-32.6,2-39,0-.4.7-.5.9-.1,2.3,6.8,8.7,33.3,9.2,40.9,1.5-3.5,3-33.8,3.5-41.9,0-.4.8-.5.9,0,1.7,6.7,5.8,31.2,6.8,40.1,1.9-8,1.4-54.8,1.2-66.4,0-.5.7-.5.9,0,2.2,8.1,7.4,38.6,5.2,67.4ZM319.4,178.7c-3.2,11.4-14.4,13-14.4,13,0,0,5.8-19.3,1.5-22.6.6,4.2-2.5,7.4-2.5,7.4,0,0,.2-3.8-2.7-6.1-.5,12.8-21.5,17.4-21.5,17.4,3.7-1.7,2.2-9.4,2.2-9.4,0,0-2.9,3.9-6.7,3.7-3.8-.3-6.4-1.5-6.4-1.5,0,0,4.1-4.4,5.9-6.7,1.8-2.3.5-8.8,3.6-9.5,3.1-.8,8.4-5.3,8.9-7,.5-1.7-.8-2.5,1.9-6.1-.2,2.5,4.5,5.2,4.5,5.2,0,0-1.4-6,.7-8.9.4,7.4,8,6.7,10.1,6,2.1-.8,3.9-11.7,2.7-16.9-1.2-5.2-7.3-15.3-7.3-15.3,0,0,11.4,9.8,12.5,14.1s.2,22,.2,22c0,0,.6-4.2,4.3-7.9-.8,4.3-2.5,15-.2,15.9s3.3-1.7,5.7-11.7c.5,6.5.2,13.6-3,25Z"/>
      <circle class="cls-1" cx="244.6" cy="314.4" r="5.7"/>
      <circle class="cls-1" cx="244.6" cy="286" r="5.7"/>
      <circle class="cls-1" cx="244.6" cy="257.5" r="5.7"/>
      <rect class="cls-1" x="277.9" y="204" width="33.8" height="5.2"/>
      <polygon class="cls-1" points="324.6 321.8 301.6 315.9 302.9 311.6 324.5 317.4 324.6 321.8"/>
      <g>
        <path class="cls-1" d="M241.3,185.9c-1,.2-2.2.4-3.5.5-4.5.3-8-4.4-8-4.4,0,0,0,.3-.1.7l20.5,43.5-8.8-40.3Z"/>
        <path class="cls-1" d="M208.4,113.6s-2.8,4.6-5.3,9.6l9.9,21.9,12.2-6.1-8.3,15.9c1.6-1.1,4.5-3.4,4.3-5.6,3.3,4.3,1.7,5.3,2.3,7.3.6,2,6.9,7.5,10.6,8.4s2.1,8.7,4.3,11.4c.3.4.7.9,1.2,1.5l-20.4-93.6-23,23.3,5.5,12.2c3.5-3.5,6.8-6.3,6.8-6.3Z"/>
      </g>
      <path class="cls-1" d="M269,180.5s3.7-4,5.5-6.3l1.1-2.3c.6-2.9.3-7,2.8-7.6.3,0,.6-.2,1-.3l4.1-8.7-8.5-16.2,12.2,6.1,16.9-37.4-23-23.3-31,141.7,21.1-44.8c-1.4-.4-2.2-.8-2.2-.8Z"/>
      <polygon class="cls-6" points="250.3 94.2 231.2 123.3 219.1 84.4 231.9 117.1 250.3 94.2"/>
      <polygon class="cls-6" points="250.3 94.2 269.2 123.3 281.2 84.4 268.5 117.1 250.3 94.2"/>
      <path id="Mund" class="cls-3" d="M204.6,217.2c0-.4-.6-.6-.8-.2-2.9,5.5-10.5,31.2-10.5,71s9.3,57.8,12,60.1.8,0,.8-.3c.2-4.7,1.1-32.8,3.8-41.1,1.2,9.8,3.3,27.1,4.8,35.1s1,.4.9,0c-.5-8.9-.4-27.5,3.4-34,.6,11.4,4,30.8,5.7,37.4s.9.4.9,0c0-7.2.8-28.4,4.8-36.7-.4,9.3,2,28.7,3,34.4s.8.5.9,0c1.1-5.6,4.2-24.7,7.7-35.5,0,7.4,1,23.8,1.6,30.5,0,.5.9.5,1,0,.7-9.2,2.4-32.2,4.9-36.7,1.1,10.8,3.5,30.3,4.5,36.2s.9.5.9,0c1.1-5.8,3.8-25.4,4.9-36.8,3.2,8.3,4,23.4,4.1,29.5s.9.6.9,0c1.4-7.4,3.9-25.7,4.8-30.7,2.5,7.6,3.9,26.9,4.4,33.2s.8.5.9,0c1.2-5.3,3.6-21.1,3.4-25.6,3,3.2,4.2,16.8,4.7,22.4s.9.5.9,0c.8-5.9,2.3-20.5,4.2-25.5,4,9.5,4.7,25.7,4.8,29.2,0,.4.6.6.8.3,2.6-3,10.8-19.3,13.1-49.5,2.2-28.8-3-59.3-5.2-67.4-.1-.4-.9-.4-.9,0,.2,11.6.7,58.4-1.2,66.4-1.1-8.9-5.2-33.5-6.8-40.1-.1-.4-.8-.4-.9,0-.5,8.1-2,38.4-3.5,41.9-.6-7.6-6.9-34.1-9.2-40.9-.1-.4-.9-.3-.9.1,0,6.4-.4,30.6-2,39-1.9-8.1-7.9-33.8-10.1-40.5s-.9-.3-.9.1c0,7.7-.3,37.9-2.1,51.3-.8-9.8-4.2-32-5.7-38.5-.1-.4-.9-.4-.9,0,0,7.6-.5,33.1-2.2,43.1-.9-7.1-3.4-31.6-4.5-39.3s-.8-.4-.9,0c-.6,8.5-2,35.7-2.5,43.9-2.3-7.1-2.5-35.9-2.4-44.9s-.8-.5-.9,0c-1.7,8.3-5.4,35.4-5.8,55-4.6-17.5-3-53.5-2.2-63.5s-.7-.6-.9-.1c-2.1,6.8-6.6,30.2-7.5,46.6-3-17.2-2.5-45.7-2.2-52.9s-.7-.6-.9-.1c-2,5.2-6.6,25.6-8.4,39.9-1.7-9.8-1.1-36.1-.8-43s-.7-.6-.9-.1c-1.7,4.9-5.3,25-8.6,50.4-6.8-17.8-2.1-63.5-.8-73Z"/>
      <path id="Mund-2" data-name="Mund" class="cls-3" d="M204.6,217.2c0-.4-.6-.6-.8-.2-2.9,5.5-10.5,31.2-10.5,71s9.3,57.8,12,60.1.8,0,.8-.3c.2-4.7,1.1-32.8,3.8-41.1,1.2,9.8,3.3,27.1,4.8,35.1s1,.4.9,0c-.5-8.9-.4-27.5,3.4-34,.6,11.4,4,30.8,5.7,37.4s.9.4.9,0c0-7.2.8-28.4,4.8-36.7-.4,9.3,2,28.7,3,34.4s.8.5.9,0c1.1-5.6,4.2-24.7,7.7-35.5,0,7.4,1,23.8,1.6,30.5,0,.5.9.5,1,0,.7-9.2,2.4-32.2,4.9-36.7,1.1,10.8,3.5,30.3,4.5,36.2s.9.5.9,0c1.1-5.8,3.8-25.4,4.9-36.8,3.2,8.3,4,23.4,4.1,29.5s.9.6.9,0c1.4-7.4,3.9-25.7,4.8-30.7,2.5,7.6,3.9,26.9,4.4,33.2s.8.5.9,0c1.2-5.3,3.6-21.1,3.4-25.6,3,3.2,4.2,16.8,4.7,22.4s.9.5.9,0c.8-5.9,2.3-20.5,4.2-25.5,4,9.5,4.7,25.7,4.8,29.2,0,.4.6.6.8.3,2.6-3,10.8-19.3,13.1-49.5,2.2-28.8-3-59.3-5.2-67.4-.1-.4-.9-.4-.9,0,.2,11.6.7,58.4-1.2,66.4-1.1-8.9-5.2-33.5-6.8-40.1-.1-.4-.8-.4-.9,0-.5,8.1-2,38.4-3.5,41.9-.6-7.6-6.9-34.1-9.2-40.9-.1-.4-.9-.3-.9.1,0,6.4-.4,30.6-2,39-1.9-8.1-7.9-33.8-10.1-40.5s-.9-.3-.9.1c0,7.7-.3,37.9-2.1,51.3-.8-9.8-4.2-32-5.7-38.5-.1-.4-.9-.4-.9,0,0,7.6-.5,33.1-2.2,43.1-.9-7.1-3.4-31.6-4.5-39.3s-.8-.4-.9,0c-.6,8.5-2,35.7-2.5,43.9-2.3-7.1-2.5-35.9-2.4-44.9s-.8-.5-.9,0c-1.7,8.3-5.4,35.4-5.8,55-4.6-17.5-3-53.5-2.2-63.5s-.7-.6-.9-.1c-2.1,6.8-6.6,30.2-7.5,46.6-3-17.2-2.5-45.7-2.2-52.9s-.7-.6-.9-.1c-2,5.2-6.6,25.6-8.4,39.9-1.7-9.8-1.1-36.1-.8-43s-.7-.6-.9-.1c-1.7,4.9-5.3,25-8.6,50.4-6.8-17.8-2.1-63.5-.8-73Z"/>
      <path id="AugeR" class="cls-3" d="M269,180.5s2.6,1.3,6.4,1.5,6.7-3.7,6.7-3.7c0,0,1.5,7.8-2.2,9.4,0,0,21-4.6,21.5-17.4,3,2.3,2.7,6.1,2.7,6.1,0,0,3.1-3.2,2.5-7.4,4.3,3.3-1.5,22.6-1.5,22.6,0,0,11.2-1.5,14.4-13,3.2-11.4,3.4-18.6,3-25-2.4,10-3.4,12.6-5.7,11.7s-.6-11.6.2-15.9c-3.7,3.7-4.3,7.9-4.3,7.9,0,0,.9-17.7-.2-22s-12.5-14.1-12.5-14.1c0,0,6.2,10,7.3,15.3s-.6,16.1-2.7,16.9-9.8,1.4-10.1-6c-2.1,2.9-.7,8.9-.7,8.9,0,0-4.7-2.7-4.5-5.2-2.7,3.6-1.4,4.4-1.9,6.1s-5.8,6.3-8.9,7-1.8,7.2-3.6,9.5-5.9,6.7-5.9,6.7Z"/>
    </g>
  </g>
</svg>