<?xml version="1.0" encoding="UTF-8"?>
<svg xmlns="http://www.w3.org/2000/svg" version="1.1" viewBox="0 0 500 500">
  <defs>
    <style>
      .cls-1 {
        fill: #87426b;
      }

      .cls-2 {
        fill: #f5d663;
      }

      .cls-3 {
        fill: #492539;
      }

      .cls-4 {
        fill: #dd3449;
      }

      .cls-5 {
        fill: #d8b955;
      }
    </style>
  </defs>
  <!-- Generator: Adobe Illustrator 28.7.1, SVG Export Plug-In . SVG Version: 1.2.0 Build 142)  -->
  <g>
    <g id="Ebene_1">
      <rect class="cls-2" x="397" y="442.5" width="30.7" height="13.9"/>
      <polygon class="cls-2" points="229.2 339.3 271 339.3 298.9 385.8 192.2 385.8 229.2 339.3"/>
      <rect class="cls-2" x="219.1" y="29.7" width="61.9" height="199.3"/>
      <rect class="cls-2" x="71.2" y="441.7" width="30.7" height="13.9"/>
      <polygon class="cls-4" points="256 77.6 261 67.2 250.3 52.2 239.9 66.4 244.6 77.6 237.1 213 250.2 242.1 250.2 242.1 250.3 242.4 250.3 242.1 250.3 242.1 263.5 213 256 77.6"/>
      <path class="cls-3" d="M429.6,450.8s-28.1-302.5-44-320.2c-15.9-17.7-84.2-23.4-84.2-23.4l-20.3-15-31,134h0l-31-134-20.3,15s-68.7,5.7-84.7,23.4c-15.9,17.7-44.3,320.5-44.3,320.5h34l39-254.2,5.7,189.8c74.6,35,101.5-25.7,101.5-34.1,0,8.5,14.7,69.1,89.3,34.1l17.4-189.8,38.7,253.9h34Z"/>
      <circle class="cls-1" cx="244.6" cy="314.4" r="5.7"/>
      <circle class="cls-1" cx="244.6" cy="286" r="5.7"/>
      <circle class="cls-1" cx="244.6" cy="257.5" r="5.7"/>
      <rect class="cls-1" x="277.9" y="204" width="33.8" height="5.2"/>
      <polygon class="cls-1" points="343.6 319.5 289.9 312.4 289.9 308 344.1 315 343.6 319.5"/>
      <polygon class="cls-1" points="219.1 84.4 250.1 226.2 216.8 155.3 225.2 139 213 145.1 196.1 107.8 219.1 84.4"/>
      <polygon class="cls-1" points="281 84.3 250.1 226.1 283.4 155.2 275 138.9 287.2 145 304.1 107.7 281 84.3"/>
      <polygon class="cls-5" points="250.3 52.2 231.2 81.3 219.1 42.4 231.9 75 250.3 52.2"/>
      <polygon class="cls-5" points="250.3 52.2 269.2 81.3 281.2 42.4 268.5 75 250.3 52.2"/>
    </g>
  </g>
</svg>